<svg xmlns="http://www.w3.org/2000/svg" viewBox="0 0 178.25 176.67"><defs><style>.cls-1{fill:#1a1a1a;}</style></defs><g id="Capa_2" data-name="Capa 2"><g id="OBJECTS"><path class="cls-1" d="M45.45,74.68a15.62,15.62,0,0,0,7,2.08c5,.34,12-1.51,15.11-5.84.69-1,1.55-2.78.19-3.65-.74-.48-2-.28-2.82-.29a13.14,13.14,0,0,0-4.14.5s0,0-.06,0a.43.43,0,0,0-.49.31,7,7,0,0,1-3.89,3.84,6.62,6.62,0,0,1-2.44.59c-1.22,0-5.13-1.66-2.16-3.38a.18.18,0,0,0-.18-.31c-2.63,1.3-.38,4.21,1.73,4.43,3.23.33,5.81-1.76,7.45-4.3a.58.58,0,0,0,.37,0,10.56,10.56,0,0,1,3-.48,11.84,11.84,0,0,1,2.32,0c1.2.81-.27,2.38-.86,3a10.24,10.24,0,0,1-2,1.47,20,20,0,0,1-10.84,2.85c-3-.11-6.66-1.09-8.76-3.35-1.83-2,.38-3.12,2.16-3.55a21.34,21.34,0,0,1,5.59-.18c.32,0,.4-.5.08-.56a13.48,13.48,0,0,0-7.45.28c-1.06.39-2.45,1-2.46,2.32C41.94,72.19,44.19,73.91,45.45,74.68Z"/><path class="cls-1" d="M47.79,71.45a.2.2,0,0,0,0-.39c-.9-.22-2.31.26-1.87,1.43.54,1.44,2-.32,2.46-.87a.19.19,0,0,0-.27-.28c-.3.24-.58.5-.87.75s-.72.68-.78.14S47.38,71.57,47.79,71.45Z"/><path class="cls-1" d="M52.32,73.56a1.78,1.78,0,0,0-1,1.36c0,.15,0,.35.21.37a.82.82,0,0,0,1-.62.15.15,0,0,0-.25-.15.65.65,0,0,1-.3.17,1.83,1.83,0,0,1,.41-.73c.06,0,.12,0,.11-.09v0l0,0C52.66,73.68,52.48,73.48,52.32,73.56Z"/><path class="cls-1" d="M59,74c.29-.09.49-.5.23-.71a0,0,0,0,0,0,0c-.27.34-.47.36-.59.06a1.51,1.51,0,0,1-.14-.35c-.06-.19-.36-.11-.3.08C58.25,73.47,58.52,74.12,59,74Z"/><path class="cls-1" d="M63.46,71.2c-.8.2-1.51-.54-2.09-.93-.13-.09-.28.06-.25.2a1.94,1.94,0,0,0,1.34,1.27c.51.18,1.38.28,1.76-.23s-.25-1-.66-1.25A2,2,0,0,0,61.64,70a.17.17,0,0,0,0,.3c.37.1.75.15,1.11.27a2.45,2.45,0,0,1,.52.24C63.51,71,63.8,71.11,63.46,71.2Z"/><path class="cls-1" d="M48.24,112.91a14.6,14.6,0,0,0-1.75,0c-.35,0-2.12-.32-1.26-1s2,.88,2.94.86a.21.21,0,0,0,.11-.39,6,6,0,0,0-2.42-1.3,1.38,1.38,0,0,0-1.53.89c-.41,1.88,3,1.77,4,1.19C48.39,113.15,48.39,112.93,48.24,112.91Z"/><path class="cls-1" d="M50.24,117.85c-.34.37-.51.78-1,1a1.83,1.83,0,0,1-.94.15,2.4,2.4,0,0,1,1.9-1.41.18.18,0,0,0,0-.35,2.82,2.82,0,0,0-2.94,2,.45.45,0,0,0,.31.55,2.43,2.43,0,0,0,2-.15c.53-.29,1.18-.89,1.12-1.55A.29.29,0,0,0,50.24,117.85Z"/><path class="cls-1" d="M55.66,120.93l.14-.18a.22.22,0,0,0-.31-.31,9,9,0,0,0-2.08,2.71c-.22.55-.22,1.45.39,1.77.79.42,1.46-.62,1.76-1.19a3.42,3.42,0,0,0,.33-2.68A.23.23,0,0,0,55.66,120.93Zm-1.51,2.94c-.22-.32.35-1.2.49-1.45a9.87,9.87,0,0,1,.75-1.15,6.84,6.84,0,0,1-.11,1.28C55.2,122.86,54.52,124.4,54.15,123.87Z"/><path class="cls-1" d="M112.34,113.13c-1,1.54-1.68,3-3.24,4.08a7.08,7.08,0,0,1-4.48,1.19c.35-2.24,1.14-4.48.58-6.72a4.69,4.69,0,0,0-2.79-3.23,10,10,0,0,0,1-4.74c.46-.3.87-.66,1.3-1,.67-.52,1.34-1,2-1.57.36-.29.13-.71-.23-.82-2.5-4-8.24-6-12.72-5.47a9.55,9.55,0,0,1-.43-2.06,5.16,5.16,0,0,0-.61-2.57c-1.15-1.56-3.42-1.11-5.07-.28a9.29,9.29,0,0,0-2.16-8.31,23.11,23.11,0,0,0-4.22-3.35c-2.6-1.86-1.94-4.9-1.88-7.64.06-2.56-.78-6.15-3.65-6.63a4.08,4.08,0,0,0-1.2-3.21c-.82-.72-1.59-1.05-1.91-2.21-.22-.84-.25-1.74-.54-2.57a3.72,3.72,0,0,0-.58-1.09c.21-.81.4-1.63.57-2.44.69-3.38,1.91-8.41.21-11.58-.19-.36-.88-.22-.82.22a33.68,33.68,0,0,1-1,13,3.61,3.61,0,0,0-3,.64c.07-.16.15-.32.21-.49A11.78,11.78,0,0,0,67.42,45c-2.81-5.94-10.32-7.23-15.68-4a15.51,15.51,0,0,0-6,7.28C44.19,52,44.8,57.11,41.1,59.47,38.75,61,35.88,61.84,35.34,65s1.45,6,3.86,7.8a10.71,10.71,0,0,0,1.66,2.15c-.24.44-.49.9-.73,1.38-6.74,1.36-16.33,6-15.09,14.33A7.69,7.69,0,0,0,30.14,97c1.92.56,4.83-.2,6.36,1.31a3,3,0,0,1,.54.78c-3.45,1.48-6.16,6.19-5.55,9.83.06.37.58.31.68,0a25.66,25.66,0,0,1,1.93-5.39,20.68,20.68,0,0,1,3.19-3.78c.43,1.62,0,3.71.42,5.21a5.35,5.35,0,0,0,1.56,2.56c-1.17,2.55-.88,6-.36,8.61a20.1,20.1,0,0,0,4.71,9.41c4.72,5.23,12.38,7.81,19.35,7.05,0,3,1,5,4.42,5.74,2.72.57,6.52.09,7.92-2.68a4.86,4.86,0,0,0,.45-2.38,5.68,5.68,0,0,0,2.72,3.56c3.32,1.85,5-1.07,7.71-2.33s5.4,1,7.68,2.25a12.62,12.62,0,0,0,4.43,1.49,10.16,10.16,0,0,0,8.53-2.68,8.65,8.65,0,0,0,2.21-7.43,7.25,7.25,0,0,0-1.57-3.39c-1.35-1.58-3-2.21-3-4.56a11.48,11.48,0,0,1,.07-1.17c3.67.68,7.91-1.58,8.68-5.47A.48.48,0,0,0,112.34,113.13Zm-6.72-12.47L103.94,102l-.7.57a5.87,5.87,0,0,0-5.41-5.22c-1.53-.14-2.56,0-3.59-1.42l-.16-.29A14.77,14.77,0,0,1,105.62,100.66ZM89.25,90.52c3.2-.4,2.66,1.38,2.94,3.25a6.19,6.19,0,0,0,2,3.9c1.79,1.5,4.2.32,5.95,1.7,2.63,2.09,2.46,6,1,8.78a4.45,4.45,0,0,0-1.53.12c-1.9.51-3.91,3.44-5.76,1.72-1.42-1.31-2-3.25-3.61-4.49s-4.4-1.91-6.31-1a15.8,15.8,0,0,0,.48-3.89,40.66,40.66,0,0,1,10.32,4.13.38.38,0,0,0,.46-.59,15.33,15.33,0,0,0-10.86-4.58,7.1,7.1,0,0,0-.47-1.81,41.12,41.12,0,0,0,4.89-1.72c.91-.39.12-1.74-.79-1.34a37.92,37.92,0,0,1-4.83,1.7A7.15,7.15,0,0,0,82,95.17,6.86,6.86,0,0,0,87.28,91C88,90.85,88.55,90.61,89.25,90.52Zm-6,16.8.07,0a4,4,0,0,1,4.43-1.06,2.19,2.19,0,0,0,.49,3.62c-.46.31-.92.6-1.4.87-.68.38-1.43.66-2.11,1.05a4.66,4.66,0,0,1-1.45-2.2A5.63,5.63,0,0,1,83.26,107.32Zm2.62,5.49-.54-.5a14.33,14.33,0,0,0,4.33-2.51c.33-.26.17-.88-.31-.74A1.1,1.1,0,0,1,88,107.7a1.71,1.71,0,0,1,.79-1A7,7,0,0,1,90.25,108a12,12,0,0,1,1.25,1.83c-1,.62-1.92,1.23-2.9,1.8-.79.47-1.7.87-2.5,1.39ZM70,98a17,17,0,0,0-.29-3,10.25,10.25,0,0,1,4.66-.89c-.56,1.27-1.06,2.56-1.52,3.83C71.86,98,70.91,98,70,98ZM59.48,92.8a6.46,6.46,0,0,0-4-2.63c-.38,0-.42.48-.17.66a15.41,15.41,0,0,1,3.55,2.78,8.15,8.15,0,0,1,1.16,2A4.57,4.57,0,0,0,60.61,97a128,128,0,0,1-13.2-3.59c-.13-.55-.25-1.11-.34-1.68,0-.06,0-.13,0-.19,1.07-1.68,2-2.94,4-3.67a7.69,7.69,0,0,0,3.27-1.62,4,4,0,0,0,5.16,1.83c1.94-.7,3.63-1.92,5.47-.18,1.41,1.33,2,3.47,2.6,5.26A16.86,16.86,0,0,1,68.46,98c-1.19-.06-2.38-.15-3.56-.29s-2.61-.36-3.89-.6l0-.06C61.57,95.67,60.27,93.79,59.48,92.8ZM49.34,95.59a8.32,8.32,0,0,1-1.09.69c-.14-.4-.27-.81-.39-1.22Zm-7.75-20,.15.14A17.82,17.82,0,0,0,46,78.38,50.08,50.08,0,0,0,45.43,90c-1.26-1.51-3.14-2.38-4.58-3.77C37.83,83.3,40,78.77,41.59,75.59Zm-3.4-9.65a.36.36,0,0,0,.22.11c6,.68,12.41,0,18.44-.21,3-.09,6-.19,9-.32a49.08,49.08,0,0,0,7.46-.45c-3.5,7.22-8.78,13-17.34,13.61a19.23,19.23,0,0,1-12.12-3.15C40.26,73.11,38.73,70.06,38.19,65.94ZM50.77,79.83a8.64,8.64,0,0,1-1.72,1.58,12.1,12.1,0,0,1-2.26,1.1c.11-1.22.25-2.43.44-3.63A20.55,20.55,0,0,0,50.77,79.83Zm-4.05,3.54A7.43,7.43,0,0,0,51.8,80a20.92,20.92,0,0,0,2.23.17c.11,1.32.5,2.73.12,4-.59,2-2.58,2.09-4.18,2.77a6.8,6.8,0,0,0-3.16,2.7A39.64,39.64,0,0,1,46.72,83.37Zm29.37,11a9,9,0,0,1,5.13,2.59,43.23,43.23,0,0,1-6.71,1C75,96.69,75.53,95.5,76.09,94.33Zm1.61-19.6a6.19,6.19,0,0,0,2.78,4.84c2.94,2,6,3.88,6.31,7.83s-2.34,5.85-5.53,7.14a11.17,11.17,0,0,0-4.33-1.89l0-.1c1.67-3.13,3.88-5.91,5.6-9a.52.52,0,0,0-.81-.63,31.06,31.06,0,0,0-6.63,9.45,12.48,12.48,0,0,0-5.87.89,18.06,18.06,0,0,0-2.74-5.81,5,5,0,0,0-3.29-2.15c-2.72-.32-5.58,3.3-7.64-.2a.81.81,0,0,0-.39-.33,6.55,6.55,0,0,0-.39-4.6,20.51,20.51,0,0,0,4.38-.54c-.48,1.92,1.26,4.73,3.07,5,.28,0,.53-.27.29-.5a9.61,9.61,0,0,1-2-2.24A7.33,7.33,0,0,1,60,79.44a20.19,20.19,0,0,0,2-.69,76.89,76.89,0,0,0,13.09,8.48c.37.18.82-.31.47-.6a65.27,65.27,0,0,0-5.85-4.3,13.17,13.17,0,0,1,5.58.19.2.2,0,0,0,.15-.36,7,7,0,0,0-6.5-.34C67,80.58,65,79.42,63,78.34A22,22,0,0,0,74.61,65.43a.65.65,0,0,0,.7,0C78.89,67.19,77.37,71.45,77.7,74.73ZM71,56.79a26.93,26.93,0,0,0,.53,2.82,3.51,3.51,0,0,0,1,1.48,5.18,5.18,0,0,1,1.24,1.15,2.94,2.94,0,0,1,.54,1.58.55.55,0,0,0-.54.16,29.42,29.42,0,0,0-6.08,0A28.83,28.83,0,0,0,71,56.69.3.3,0,0,0,71,56.79Zm-1-1.38c-.82,2.88-1.86,5.74-2.95,8.63l-1.31.07-5.15.2v0c-.55-2.32,3-4.2,4.32-5.65a15.48,15.48,0,0,0,1.78-2.49C67.82,55.42,69.14,54.9,70.07,55.41ZM38.78,62.28c1.94-1.28,4.16-1.92,5.45-4s1.45-5,2.2-7.41a14.93,14.93,0,0,1,6.11-8.44c6.36-3.95,14.74.12,14.35,7.93-.19,3.84-2.48,6.77-5.25,9.2-1.51,1.33-2.86,2.75-2.52,4.8l-2.77.11c-1.59.06-3.2.08-4.82.1A53.33,53.33,0,0,0,53.76,59c.06-.2-.23-.4-.37-.22a20.79,20.79,0,0,0-2.35,4,12.26,12.26,0,0,1-.87-8.25.27.27,0,0,0-.49-.21,8.63,8.63,0,0,0,1,9.14l.05,0c-.16.35-.31.7-.47,1a82.45,82.45,0,0,0-11.92.68.3.3,0,0,0-.28.26c-.2-.15-.53-.08-.51.23A23.59,23.59,0,0,0,38,69.54C36.42,67.06,35.5,64.43,38.78,62.28ZM39,104.55c-.81-2.49.49-5.51-1.82-7.45S31.6,96.59,29.16,95c-4.45-2.81-3.05-8.8-.05-12,2.82-3,6.79-4.19,10.53-5.66-1.12,2.5-1.86,5.35-.77,7.8a6.51,6.51,0,0,0,2.24,2.48C42.65,88.75,44,90,45.54,91.18c.07.57.14,1.14.24,1.71-1.54-.48-3.08-.94-4.63-1.37-.33-.09-.55.4-.24.55,1.66.82,3.38,1.58,5.14,2.28a25.4,25.4,0,0,0,.7,2.63c-.41.14-.82.27-1.23.38a38.76,38.76,0,0,1-4.15.29c-.33,0-.55.49-.19.69,1.83,1,4,.55,5.89-.45a19.4,19.4,0,0,0,2.59,4.89c.31.41,1.15.19.92-.4-.7-1.83-1.45-3.6-2.09-5.4a10.09,10.09,0,0,0,1.36-1.21,67.94,67.94,0,0,0,18.51,3.66,6.67,6.67,0,0,1-4,5.27A12.42,12.42,0,0,0,60.64,107c-1.67,1.7-3.06,3.56-5.78,3s-3.54-4.43-6.53-4.27A7.7,7.7,0,0,0,45.27,107,4.26,4.26,0,0,1,39,104.55Zm18.35,18a5.24,5.24,0,0,0-.49,4c-4.32-.27-8.42-3-11-6.35-2.78-3.51-2.93-7.09-2.94-11.2a4.57,4.57,0,0,0,.74,0c1.28-.13,2.37-1,3.48-1.42.68.8,1.49,1.53,2.22,2.26s1.4,1.44,2.13,2.12a2.27,2.27,0,0,0-.8,3.09c1.58,2.51,6.1,3.21,8.9,3C59.28,119.53,58.11,121,57.39,122.56Zm-2-6a11.49,11.49,0,0,1-2-.68,6.78,6.78,0,0,1-1-.49q-1.78-.81,0-2.61l0,0c.24.19.69-.06.47-.36a35.3,35.3,0,0,0-2.83-3.15c-.63-.68-1.25-1.4-1.92-2.06a2.67,2.67,0,0,1,2.06.83c1.24,1.14,1.88,2.42,3.55,3a6.19,6.19,0,0,0,2.46.32c.5,1.44,1.51,2.25,2.48,3.5a3.9,3.9,0,0,1,.84,1.93A14.14,14.14,0,0,1,55.43,116.59Zm-10.68,8.3A18.88,18.88,0,0,1,40,116.17c-.68-2.88-.18-5.36,0-8.09a5.87,5.87,0,0,0,1.9.78c-1.2,4,.47,8.94,2.93,12.07,3,3.84,7.86,6.9,12.83,6.84l.07,0a5.13,5.13,0,0,0,2.33,1c.82.17,2-.07,2.61.49a2.52,2.52,0,0,1,.33,2C56.26,131.54,49.62,130,44.75,124.89Zm29.43,6.31c.08,2.52.21,4.71-2.68,5.6-2.09.64-4.85.42-6.35-1.22-1.88-2,.28-4.87-1.1-7.05-1.28-2-4.76,0-5.88-2.42-1-2.1,1.74-5,2.43-6.69a4.84,4.84,0,0,0,.12-3.84c-.75-1.72-2.46-2.67-3.19-4.36a5,5,0,0,0,.66-.2c1.94-.8,2.77-2.72,4.41-3.89s3.44-1.46,4.86-2.72a7.68,7.68,0,0,0,2.39-4.77s0-.11,0-.16c.8,0,1.61,0,2.41,0-.3.9-.58,1.79-.84,2.66-.32,1.07-.61,2.16-.87,3.26-2.87,1.17-5.25,3.84-6.81,6.36-.09.16.15.36.27.21a22.57,22.57,0,0,1,3.39-3.38,19.42,19.42,0,0,1,2.85-1.87,42.87,42.87,0,0,0-.52,17.06c0,.21.36.15.36-.05.09-3.49.25-6.93.62-10.35a9.81,9.81,0,0,1,3.07,2.66,13.87,13.87,0,0,1,1.69,4.63c.05.21.42.24.46,0,.47-3.05-2.06-7.2-5.09-8.37a58.31,58.31,0,0,1,2-9.76c.33-1.06.69-2.1,1.07-3.13a46.29,46.29,0,0,0,8.21-1.18c1.67,3.34-.77,6.77-.73,10.24a5.78,5.78,0,0,0,1,3.3c1.2,1.69,3.63,2.6,3.65,5,0,4.29-5.48,5.85-8.3,7.92C75.58,126.28,74.09,128.39,74.18,131.2Zm30.87-6.36a6.48,6.48,0,0,1,.37,9.71c-3.49,3.4-8.46,2.09-12.16,0-2.43-1.37-5.1-2.8-7.84-1.4-1.61.83-2.87,2.85-4.87,2.81-3.59-.06-4.1-4.52-4.29-7.35,1-1.87,3-3.09,4.86-4.13a21.76,21.76,0,0,0,4.15-2.8c-.2,2.28.25,4.92,1.8,6.3a.22.22,0,0,0,.36-.21c-.19-1.32-.88-2.54-1.12-3.87a16.47,16.47,0,0,1-.23-3.06,6.81,6.81,0,0,0,1.12-1.74,103.74,103.74,0,0,0,11,10,.28.28,0,0,0,.39-.39,50.56,50.56,0,0,0-5.86-6.16,10,10,0,0,1,6.54-.81c.3,0,.52-.34.22-.51-2.21-1.33-5.34-.71-7.27.88a53,53,0,0,0-4.75-3.71,6,6,0,0,0,.26-1.66,4.78,4.78,0,0,0-.94-2.88c.82-.38,1.61-.9,2.35-1.32,1-.57,2-1.17,2.95-1.79a4.74,4.74,0,0,0,1.27,1.33c2.3,1.54,4.09-.92,6-1.79,5.87-2.64,3.66,6,3.38,8.43A6.19,6.19,0,0,0,105.05,124.84Z"/><path class="cls-1" d="M90.56,47.07a13.08,13.08,0,0,0,4-.61c0,.39.1.78.14,1.16a10.88,10.88,0,0,0,.61,3.9.26.26,0,0,0,.47-.07c.48-1.42,0-3.05-.14-4.51l-.09-.7a14.54,14.54,0,0,0,4-1.21.29.29,0,0,0-.15-.54,13.64,13.64,0,0,0-4,.7,13.52,13.52,0,0,0-.66-2.74.26.26,0,0,0-.5.07,21.88,21.88,0,0,0,.21,2.9,13.62,13.62,0,0,0-4,1.27A.2.2,0,0,0,90.56,47.07Z"/><path class="cls-1" d="M107.93,62.59c-.2-.08-.37.19-.27.35a4,4,0,0,1,.91,2.7c-.43,2-2.54,1.37-3.82.82-.22-.09-.59,0-.55.32.13,1.06.54,2.4-.86,3-.61.25-2.49-.25-2.94-.34-.18,0-.42.09-.4.3a4.23,4.23,0,0,1-.1,1.87q-1.65.83-2.34-.45c-.15-.19-.47.06-.33.26.49.74,1.61,2.38,2.75,1.8,1-.51,1-2,.76-3,1.13.28,2.78.74,3.67.16s.81-1.87.63-2.91c1.48.6,3.65,1.08,4.35-.58C110,65.46,109.31,63.15,107.93,62.59Z"/><path class="cls-1" d="M123.62,69.68c-.17-.26-.67-.2-.64.17.07.76.48,1.92,0,2.62s-1.43-.21-2.11.11a.1.1,0,0,0,0,.14.11.11,0,0,1,0,.08s0,.08,0,.17a.88.88,0,0,1-.16.4.81.81,0,0,1-1.31-.14.23.23,0,0,0-.4.23c.38.76,1.44,1.35,2.15.6a.9.9,0,0,0,.27-.6,2.43,2.43,0,0,0,1,.26,1.44,1.44,0,0,0,1.26-.59A3.43,3.43,0,0,0,123.62,69.68Z"/><path class="cls-1" d="M119,88.84c.26.75,1.46,2.33.17,2.73a3.21,3.21,0,0,1-2.72-1c-.2-.19-.57.07-.4.31.75,1.06,2.41,2.1,3.73,1.41s.51-2.93-.33-3.73C119.28,88.4,118.92,88.57,119,88.84Z"/><path class="cls-1" d="M147.21,101.37h.07a.3.3,0,0,0,.31-.09c2.45-.48,4.86-1,7.16-1.54a.57.57,0,0,0,.25-1c-4.41-4.85-12.07-8.67-18.77-7-.84-14.17-2.51-29.1-11.67-40.59a57.24,57.24,0,0,0-17.2-14.08,32.51,32.51,0,0,0-15.62-3.78c-1.77,0-3.13.36-3.92,2a12.93,12.93,0,0,0-.68,7,9.67,9.67,0,0,0-2.52-1.6c-1.79-.58-1.89,1.23-2.26,2.63a45.37,45.37,0,0,0-.31,20.18,47.46,47.46,0,0,0,21.56,30.73c5.73,3.56,12.58,6.37,19.4,6.58a.33.33,0,0,0,.24.39c-1,3.17-.57,7.17.13,10.28a19.44,19.44,0,0,0,6.45,10.69.52.52,0,0,0,.86-.23c1.26-6.45,2.48-12.94,3.42-19.45A57.69,57.69,0,0,0,147.21,101.37Zm-13-6.47a62.67,62.67,0,0,1,18.36,4.17c-2.08.46-4.15.89-6.24,1.26A65.19,65.19,0,0,0,139,98.24,40,40,0,0,0,132.18,97,24.72,24.72,0,0,0,134.19,94.9Zm19.29,4-.19,0a45.48,45.48,0,0,0-18.64-4.58c.33-.41.64-.83.93-1.25A.66.66,0,0,0,136,93a4.69,4.69,0,0,0,.6-.2,12.82,12.82,0,0,1,1.53-.23l.64,0a25.14,25.14,0,0,1,6.61,1.2A21.65,21.65,0,0,1,153.48,98.87ZM83,43.21c.68-2.41,1.32-2,2.68-.86l1.75,1.42c.27.22.82.11.77-.32-.25-2.48-.85-7.73,2-8.85,2.47-1,6.11,0,8.57.49a34.26,34.26,0,0,1,12.34,5.77,39.49,39.49,0,0,1-10,15.68,35.72,35.72,0,0,1-7.57,5.59c-3.3,1.79-6.38,2.25-9.93,2.88a49.92,49.92,0,0,1-1.5-10.25C82,51,82,46.82,83,43.21ZM104,93A47.05,47.05,0,0,1,88.79,77.51,46.55,46.55,0,0,1,83.92,66,2.68,2.68,0,0,0,85,66a5,5,0,0,0,1.45-.15h0c5.49-.36,11.27-4.63,14.93-8A40.52,40.52,0,0,0,112.17,41.6c2.34,1.71,4.55,3.59,6.64,5.45C131.63,58.46,134.25,75.84,135,92.14a23.4,23.4,0,0,1-1.7,2.23.22.22,0,0,0-.12.13,19.07,19.07,0,0,1-3.73,3.32,32.45,32.45,0,0,1-5.63,2.65h0c-3.44-1-7-1.59-10.35-2.81A48.94,48.94,0,0,1,104,93Zm26,27.49a.14.14,0,0,0,0,.07c0,.12-.05.25-.07.37-.13-.11-.26-.22-.38-.34a.44.44,0,0,0,0-.23,60,60,0,0,1-2.28-10.52c-.35-3.14-.12-6.27-.29-9.4a16.32,16.32,0,0,0,2.57-1.37A172,172,0,0,0,129.91,120.52ZM124,102.83a14.12,14.12,0,0,0,.28-1.58,11.17,11.17,0,0,0,2.16-.59c-1.1,5.94.16,13.08,2,18.83a18.51,18.51,0,0,1-4.17-8.44A32,32,0,0,1,124,102.83Zm9.18-.77c-.69,4.82-1.56,9.61-2.45,14.4-.09-5.9-.25-11.82-.71-17.7a19.47,19.47,0,0,0,1.55-1.2c2.47.77,5.1,1.15,7.62,1.73,1.74.41,3.47.9,5.2,1.36l-.31,0c-3.39.51-6.82.62-10.21,1.06C133.57,101.62,133.2,101.67,133.15,102.06Z"/><path class="cls-1" d="M84.42,110a2.44,2.44,0,0,0,.89-.49,6.25,6.25,0,0,0,1-.74.31.31,0,0,0-.09-.47.2.2,0,0,0,0-.39c-.87-.18-2.83,0-2.79,1.29A.82.82,0,0,0,84.42,110Zm-.1-1c.11-.28.63-.52.89-.61a2.44,2.44,0,0,1,.81-.11,6.07,6.07,0,0,0-.91.48c-.16.1-.33.22-.5.31S84.2,109.33,84.32,109Z"/><path class="cls-1" d="M158.55,76.15c-3.41-14.88-12.34-28.06-23.06-38.71C125.3,27.3,110.78,21.25,96.75,18.89A66.57,66.57,0,0,0,86,17.94a.71.71,0,0,0-.43.14,39.68,39.68,0,0,0-15.24,2.11,70.45,70.45,0,0,0-25.29,12c-11.27,8.5-18.44,21.18-23,34.32A68.55,68.55,0,0,0,20,105.19c3.49,15,11.26,27.89,23.36,37.42,11.62,9.17,26.16,15.4,41.05,16a79.38,79.38,0,0,0,42.68-10.12C151.48,134.36,164.86,103.73,158.55,76.15ZM53,147.54c-12.69-7.41-23-18-28.55-31.7C19.31,103.1,17.36,88.5,20.53,75c3-12.76,8.9-25.76,17.82-35.46C47,30.19,59.07,24,71.44,21c2.74-.52,5.48-1,8.27-1.29,2.3-.22,4.61-.21,6.91-.27a75.15,75.15,0,0,1,40.55,12.86A70.2,70.2,0,0,1,141.46,46,81.67,81.67,0,0,1,153.33,64.9C165,91.2,156.67,124,134.19,142,123.32,150.7,109.71,155.5,96,156.88A69.94,69.94,0,0,1,53,147.54Z"/><path class="cls-1" d="M176.37,73.35C172.16,54.59,160.93,38,147.49,24.59c-12.79-12.78-31-20.4-48.64-23.39A83.83,83.83,0,0,0,85.25,0a.71.71,0,0,0-.47.17A51.72,51.72,0,0,0,65.4,2.81,88.69,88.69,0,0,0,33.69,18C19.57,28.65,10.58,44.62,4.85,61.13a86,86,0,0,0-2.53,48.34c4.35,18.67,14,34.8,29,46.73C46,167.79,64.25,175.73,83,176.57c18.31.83,37.41-3.34,53.35-12.47C167.18,146.45,184.15,108.06,176.37,73.35Zm-31,83.1c-13.77,10.79-30.91,16.67-48.22,18.31a86.21,86.21,0,0,1-27.84-1.5,92.43,92.43,0,0,1-26-10.53c-15.79-9.32-28.61-22.54-35.53-39.64-6.54-16.13-9-34.6-4.95-51.66,3.8-16,11.16-32.19,22.29-44.38C35.92,15.21,51.16,7.37,66.74,3.6c3.47-.69,6.93-1.34,10.47-1.69,3.27-.31,6.54-.27,9.8-.34a94.65,94.65,0,0,1,50.21,16.27c7.05,4.84,13,11.12,18.36,17.72a103.27,103.27,0,0,1,14.83,24C184.81,92.78,173.78,134.16,145.33,156.45Z"/><path class="cls-1" d="M48.84,14.87c.72-.35.09-1.42-.63-1.08-14.62,6.9-28.12,20-32.87,35.82,0,.15.19.26.26.11,3.7-7.44,7.75-14.34,13.47-20.45A66,66,0,0,1,48.84,14.87Z"/><path class="cls-1" d="M50.88,13.2a8.64,8.64,0,0,0,1.87-.45c.54-.19,1.16-.32,1.45-.86a.35.35,0,0,0-.21-.51,2.3,2.3,0,0,0-1.65.4,8.47,8.47,0,0,0-1.64,1A.26.26,0,0,0,50.88,13.2Z"/><path class="cls-1" d="M164.47,124.24c-3.7,7.44-7.74,14.34-13.47,20.45a66.1,66.1,0,0,1-19.76,14.41c-.73.34-.1,1.42.63,1.08,14.61-6.91,28.11-20.05,32.86-35.83C164.77,124.2,164.54,124.09,164.47,124.24Z"/><path class="cls-1" d="M129.19,160.76a8.56,8.56,0,0,0-1.86.45c-.55.19-1.17.33-1.46.86a.36.36,0,0,0,.21.52,2.36,2.36,0,0,0,1.65-.41,8.35,8.35,0,0,0,1.65-1A.26.26,0,0,0,129.19,160.76Z"/></g></g></svg>