<svg xmlns="http://www.w3.org/2000/svg" viewBox="0 0 178.25 176.67"><defs><style>.cls-1{fill:#1a1a1a;}</style></defs><g id="Capa_2" data-name="Capa 2"><g id="OBJECTS"><path class="cls-1" d="M158.55,76.15c-3.41-14.88-12.34-28.06-23.06-38.71C125.3,27.3,110.78,21.25,96.75,18.89A66.57,66.57,0,0,0,86,17.94a.71.71,0,0,0-.43.14,39.68,39.68,0,0,0-15.24,2.11,70.45,70.45,0,0,0-25.29,12c-11.27,8.5-18.44,21.18-23,34.32A68.55,68.55,0,0,0,20,105.19c3.49,15,11.26,27.89,23.36,37.42,11.62,9.17,26.16,15.4,41.05,16a79.38,79.38,0,0,0,42.68-10.12C151.48,134.36,164.86,103.73,158.55,76.15ZM53,147.54c-12.69-7.41-23-18-28.55-31.7C19.31,103.1,17.36,88.5,20.53,75c3-12.75,8.9-25.75,17.82-35.46C47,30.19,59.07,24,71.44,21c2.74-.52,5.48-1,8.27-1.29,2.3-.22,4.61-.21,6.91-.27a75.15,75.15,0,0,1,40.55,12.86A70.2,70.2,0,0,1,141.46,46,81.67,81.67,0,0,1,153.33,64.9C165,91.2,156.67,124,134.19,142,123.32,150.7,109.71,155.5,96,156.88A69.94,69.94,0,0,1,53,147.54Z"/><path class="cls-1" d="M176.37,73.35C172.16,54.59,160.93,38,147.49,24.59c-12.79-12.78-31-20.4-48.64-23.39A83.83,83.83,0,0,0,85.25,0a.71.71,0,0,0-.47.17A51.72,51.72,0,0,0,65.4,2.81,88.69,88.69,0,0,0,33.69,18C19.57,28.65,10.58,44.62,4.85,61.13a86,86,0,0,0-2.53,48.34c4.35,18.67,14,34.8,29,46.73C46,167.79,64.25,175.73,83,176.57c18.31.83,37.41-3.34,53.35-12.47C167.18,146.45,184.15,108.06,176.37,73.35Zm-31,83.1c-13.77,10.79-30.91,16.67-48.22,18.31a86.21,86.21,0,0,1-27.84-1.5,92.43,92.43,0,0,1-26-10.53c-15.79-9.32-28.61-22.54-35.53-39.64-6.54-16.13-9-34.6-4.95-51.66,3.8-16,11.16-32.19,22.29-44.38C35.92,15.21,51.16,7.37,66.74,3.6c3.47-.69,6.93-1.34,10.47-1.69,3.27-.31,6.54-.27,9.8-.34a94.65,94.65,0,0,1,50.21,16.27c7.05,4.84,13,11.12,18.36,17.72a103.27,103.27,0,0,1,14.83,24C184.81,92.78,173.78,134.16,145.33,156.45Z"/><path class="cls-1" d="M48.84,14.87c.72-.35.09-1.42-.63-1.08-14.62,6.9-28.12,20-32.87,35.82,0,.15.19.26.26.11,3.7-7.44,7.75-14.34,13.47-20.45A66,66,0,0,1,48.84,14.87Z"/><path class="cls-1" d="M50.88,13.2a8.64,8.64,0,0,0,1.87-.45c.54-.19,1.16-.32,1.45-.86a.35.35,0,0,0-.21-.51,2.3,2.3,0,0,0-1.65.4,8.47,8.47,0,0,0-1.64,1A.26.26,0,0,0,50.88,13.2Z"/><path class="cls-1" d="M164.47,124.24c-3.7,7.44-7.74,14.34-13.47,20.45a66.1,66.1,0,0,1-19.76,14.41c-.73.34-.1,1.42.63,1.08,14.61-6.91,28.11-20.05,32.86-35.83C164.77,124.2,164.54,124.09,164.47,124.24Z"/><path class="cls-1" d="M129.19,160.76a8.56,8.56,0,0,0-1.86.45c-.55.19-1.17.33-1.46.86a.36.36,0,0,0,.21.52,2.36,2.36,0,0,0,1.65-.41,8.35,8.35,0,0,0,1.65-1A.26.26,0,0,0,129.19,160.76Z"/><path class="cls-1" d="M124.48,118.76c-1.18,1.1-1.74,2.78-2.49,4.17a.23.23,0,0,0,0,.18,23.36,23.36,0,0,0-3.32.51c-1.31.22-2.61.44-3.91.74.66-.78,1.26-1.6,1.87-2.43s1.24-1.56,1.78-2.39l.19,0a.5.5,0,0,0,.48-.56,21.63,21.63,0,0,0,2.67,0,10.55,10.55,0,0,0,2.91-.35c.25-.08.3-.5,0-.55h-.07a.28.28,0,0,0-.06-.3c-2.67-2.51-6.3-4.31-9.38-6.29s-6.22-4-9.44-5.82c2-1.19,4-2.42,6-3.77.13-.09.06-.35-.11-.28l-.21.1a12.73,12.73,0,0,0-2.34-3,25.68,25.68,0,0,0-3.23-3.36c-.18-.15-.46,0-.33.25A23,23,0,0,0,108,99a15.55,15.55,0,0,0,2.65,3c-5.1,2.26-9.92,5.4-14.7,8.24q-7.81,4.65-15.48,9.56a8.14,8.14,0,0,0-1.35-1.28,9.48,9.48,0,0,0-1.54-1.09,33.08,33.08,0,0,0,8.5-4.65.65.65,0,0,0,0,.13c.11.31.63.3.62-.08,0-.19,0-.37,0-.55l.14-.12c.1-.09,0-.22-.14-.17h0c-.12-1.7-.39-3.4-.46-5.11a.26.26,0,0,0,0-.38l-.29-.21c6.67-2.6,13-6.59,19.35-9.93.47-.25,0-1-.42-.71C98.52,99,91.6,102,85.68,106a0,0,0,0,1,0,0,25.25,25.25,0,0,0-5-2.49c-.06-.25-.11-.51-.18-.76a.22.22,0,0,0-.19-.17.32.32,0,0,0-.36,0l-1.08.65c-5.56-1.39-11.15-3-16.79-4.17a.38.38,0,0,0,0-.32c-2.48-3.33-4.78-7-7.48-10.15-.64-3.86-1.36-7.71-2.25-11.53a.48.48,0,0,0-.49-.4.45.45,0,0,0-.11,0,10.19,10.19,0,0,0-2.93.68.27.27,0,0,0-.19-.1c-1.13-.08-2.32.8-3.28,1.35a99.36,99.36,0,0,0-7.54-9.9.17.17,0,0,0-.28.16l-.13,0a26.55,26.55,0,0,0-4.87,2.55c-.16.13,0,.36.19.33a21.39,21.39,0,0,0,4.64-2,10.72,10.72,0,0,0-.42,3.86c-.91.57-1.79,1.19-2.7,1.77a28.5,28.5,0,0,0-2.48,1.62,32,32,0,0,0,.92-4.64c.07-.48-.64-.7-.74-.21a30.83,30.83,0,0,0-.78,5,1.73,1.73,0,0,0,.53.45l.22-.09a35.12,35.12,0,0,0,4,5c-1.46,3.7-3.36,7.72-4,11.64a.22.22,0,0,0-.33.24C32.92,99.81,35,104.93,36.83,110a6.59,6.59,0,0,0-2.37,2.72.45.45,0,0,0,.17.61,146.31,146.31,0,0,1,33.19,26.89c0,.15.06.28.25.26h.09a.45.45,0,0,0,.32,0,19.73,19.73,0,0,0,3.63-.85l1.17-.38a1.39,1.39,0,0,0,.9.58.28.28,0,0,0,.28-.2,51,51,0,0,0,8.43-3.23c.77,1.27,1.65,2.47,2.43,3.73.92,1.49,1.67,3.1,2.67,4.53a.29.29,0,0,0,.21.11c-.13.12,0,.4.18.33L91,144a.45.45,0,0,0,.07.18,8.55,8.55,0,0,0,5.47,3.35.21.21,0,0,0,.17-.05v0c0,.28.45.38.53.07a.07.07,0,0,1,0-.05h0c9.44-5.54,19-12.21,26.14-20.58a.62.62,0,0,0-.24-1l-.17-.19c-.22-.23-.46-.46-.69-.68a8.6,8.6,0,0,0-1.13-1,7.59,7.59,0,0,0,1.11-.36.31.31,0,0,0,0-.57c.89-1.29,2.13-2.55,2.57-4.09A.29.29,0,0,0,124.48,118.76Zm-45.75.31c.4.35.75.79,1.16,1.17-.12.32.22.75.59.51l.08,0a.26.26,0,0,0,.31-.19Q88,116,95.16,111.65c2.75,2.28,5.6,4.55,8.54,6.7a69.86,69.86,0,0,0-7.42,1.56c-2.35.52-4.7,1-7,1.47l0,0a.17.17,0,0,0-.23.08l-1.61.34c-5.54,1.1-11.26,1.78-16.74,3.16-1.2-1.18-2.43-2.34-3.67-3.48l-1.09-1A60.93,60.93,0,0,0,77,117.62C77.53,118.13,78.16,118.56,78.73,119.07Zm28.38,6.69a24.63,24.63,0,0,0-10.7-.58,60.86,60.86,0,0,0-5.8-3.12c1.5-.3,3-.6,4.51-.92,1.83-.39,3.76-.69,5.63-1.12a11.55,11.55,0,0,0,2.36,1.49c.25.1.47-.15.47-.38,1.55.05,3,.65,4.55.79.2,0,.29-.17.26-.34.7.46,1.4.9,2.11,1.33C109.37,123.87,108.25,124.83,107.11,125.76Zm-7.79,4.77c-6.83-1.93-13.6-4.45-20.5-6.11,2.63-.49,5.24-1,7.83-1.55l3.22-.66A61.25,61.25,0,0,0,96.19,126a.4.4,0,0,0,.58-.3,36.8,36.8,0,0,1,9.55.72c-1,.83-2.07,1.65-3.15,2.43s-2.39,1.59-3.61,2.35A.42.42,0,0,0,99.32,130.53ZM57.43,108.06A44.74,44.74,0,0,0,64.2,111l-1.49.67a17.58,17.58,0,0,0-5-1.31C57.65,109.56,57.55,108.81,57.43,108.06Zm8.28,3.13a127.1,127.1,0,0,0,12.94-6.89h0a.5.5,0,0,0,.62-.39l.54-.33s0,0,0,.07l.12.08a35.62,35.62,0,0,0,.67,5,.42.42,0,0,0-.31,0c-3.49,1.53-6.85,3.25-10.4,4.65-2.8,1.1-5.83,1.83-8.56,3.08a22.71,22.71,0,0,0-3.35-2.2q2.4-.87,4.75-1.86l.17,0a.41.41,0,0,0,.44-.29c.65-.28,1.3-.58,2-.87A.32.32,0,0,0,65.71,111.19Zm-5.93.36c.59.18,1.17.39,1.76.58q-1.71.75-3.45,1.47c0-.1,0-.21.07-.32a.45.45,0,0,0-.41-.52,14.1,14.1,0,0,0,0-1.84Q58.76,111.25,59.78,111.55Zm-2.56,4.61c.17-.47.37-1,.55-1.44,2.52,2.9,5.9,5.24,8.71,7.85,2.27,2.11,4.44,4.31,6.59,6.54a.34.34,0,0,0,.39.41l1.5,1.57a.49.49,0,0,0,.33.16,21.75,21.75,0,0,0-.05,2.91c0,.75,0,1.51,0,2.26C72.66,132.94,69,130,66,126.82s-5.95-6.53-9.14-9.57C57,116.89,57.08,116.52,57.22,116.16ZM76,130.64a.29.29,0,0,0-.18-.19,1.19,1.19,0,0,0-.09-.15c-.35-.39-.71-.77-1.07-1.16a39,39,0,0,0,6.53-2.34c.34-.18.09-.66-.25-.59a41.93,41.93,0,0,0-6.86,2.31c-.95-1-1.92-2-2.91-3,2.15-.18,4.31-.5,6.46-.88A85.42,85.42,0,0,0,86.94,128a49.7,49.7,0,0,0-5.45,2.21c-1.78.75-3.56,1.5-5.29,2.37A8.23,8.23,0,0,0,76,130.64Zm27.54-9.88a.16.16,0,0,0-.14.09,9.14,9.14,0,0,0-1.76-1.06,22.74,22.74,0,0,0,2.34-.74.39.39,0,0,0,.25-.31c1.09.78,2.19,1.55,3.31,2.29A8.72,8.72,0,0,0,103.56,120.76Zm-27.77-3.88a60.94,60.94,0,0,1-10.88,2.7c-1-.91-2-1.82-3-2.67A44.49,44.49,0,0,0,71.06,114a65.71,65.71,0,0,0,9.71-4.48s0,0,0-.05a.37.37,0,0,0,.6.12c.63.31,1.26.61,1.86,1s1.39,1,2.15,1.41a.31.31,0,0,0,.42-.11c0,.14.07.29.11.43C82.55,113.81,79.34,115.64,75.79,116.88Zm10-10a15.27,15.27,0,0,0,0,4.48,8.56,8.56,0,0,0-4.25-2.23,34.59,34.59,0,0,0-.69-4.9A20.73,20.73,0,0,0,85.78,106.91Zm-20.47,3.53a49.52,49.52,0,0,0-7.87-2.81h-.08c-.18-1.06-.38-2.11-.52-3.13-.28-2-.57-4.07-.85-6.1,7,2.38,14.38,3.92,21.59,5.64C73.59,106.4,69.5,108.5,65.31,110.44ZM60.94,98.89c-1.67-.34-3.34-.65-5-.91-.12-.85-.23-1.69-.36-2.53q-.36-2.58-.78-5.16A73.27,73.27,0,0,0,60.94,98.89Zm-6.35-3.17c.45,3,.89,6,1.33,9,.26,1.75.38,3.63.71,5.44-.18,0-.18.26,0,.32l.09,0a15,15,0,0,0,.7,2.42,13.25,13.25,0,0,0-1,2.54c-.11.33-.23.66-.35,1,0,0,0,0-.05-.05l0,0-3.68-19.1c-.65-3.35-1.29-6.7-2-10-.58-3-.87-6-1.38-8.94a12.65,12.65,0,0,0,2.25-.87C52.63,83.5,53.66,89.6,54.59,95.72Zm-7.28-17a.46.46,0,0,0,.23,0l.61-.16a27.67,27.67,0,0,0,.7,7.25c.64,3.63,1.37,7.25,2.07,10.87q2.07,10.77,4.15,21.55s0,0,0,.08a7.72,7.72,0,0,1-5.51.87c-.32-6.25-1.92-12.58-3.06-18.72-1.21-6.46-2.28-13-3.63-19.4l.66-.38a.41.41,0,0,0,.47-.27c.55-.33,1.11-.65,1.67-1S46.76,79,47.31,78.76ZM42.77,88.94A.4.4,0,0,0,43,89c.19,1,.39,2.08.59,3.12a8.69,8.69,0,0,0-1.06,1.31,8,8,0,0,0-1,2.31l-.09-.06c-.63-.27-1.28-.48-1.93-.7,0,0-.07,0-.1,0,.44-.84.83-1.71,1.27-2.56C41.31,91.23,42.08,90.11,42.77,88.94Zm1.42,6.15a6.34,6.34,0,0,0-1.59-.58l.44-.64a9.07,9.07,0,0,1,.74-.9C43.92,93.68,44.06,94.39,44.19,95.09Zm-2,0a.34.34,0,0,0,.09.08,4.79,4.79,0,0,0,2,.74c.29,1.49.57,3,.85,4.45.23,1.23.45,2.48.66,3.74a30.59,30.59,0,0,1-2.12-3.24c-.82-1.58-1.29-3.27-2-4.89A9.54,9.54,0,0,1,42.23,95.08ZM37.72,73.49a.41.41,0,0,0-.28-.11,10,10,0,0,0,.34-3.78h0a.44.44,0,0,0,.1-.08c2.25,3.16,4.45,6.36,6.56,9.61l-.81.49a47.36,47.36,0,0,0-5.68-6.16A.14.14,0,0,0,37.72,73.49Zm-5.5,4A20.38,20.38,0,0,0,34.74,76a31.76,31.76,0,0,0,3-2,.31.31,0,0,0,.12-.21C39.54,75.91,41.3,78,43,80.06l-.31.23a.65.65,0,0,0-1.09.59c.38,2.35.81,4.69,1.24,7C39,84.64,35.78,81,32.22,77.48Zm39.6,61.1c-1,.38-2.1.74-3.14,1.14,0,0,0,0,0-.07a117.51,117.51,0,0,0-16.92-16q-4.12-3.24-8.5-6.16-2.52-1.67-5.13-3.2A11.16,11.16,0,0,1,35.84,113c-.52-.87.45-1.7,1.22-2.34,0,.1.07.2.11.3.2.55,1.08.32.88-.24-1.92-5.27-3.67-10.67-5.95-15.8,0,0,0,0,0-.05,2-3.52,2.92-7.93,4-11.84a68.44,68.44,0,0,0,6,5.42,17.76,17.76,0,0,0-3.56,7.42.44.44,0,0,0-.19.56c1.37,3.76,2.92,7.89,5.51,11a.23.23,0,0,0,.26.06l-.24.18a.25.25,0,0,0-.09.21A14.27,14.27,0,0,0,41,109.26a13.5,13.5,0,0,0-3.67,2.53c-.17.19,0,.55.27.46a32.76,32.76,0,0,0,3.73-1.91c1.19-.62,2.76-1,3.71-2a.37.37,0,0,0-.14-.6c.66-.33,1.33-.86,1.34-1.5a.31.31,0,0,0-.38-.29c-.39.15-.58.48-.85.78a6.75,6.75,0,0,1-.64.56.22.22,0,0,0,0-.16c-1.51-3.75-3.57-7.2-4.93-11a.53.53,0,0,0-.47-.36c.08-.13.16-.26.23-.4,0,0,.05.09.1.11.65.3,1.29.6,2,.85a.42.42,0,0,0,.19,0c.32,3.18,2.28,7.36,4.7,9.35a90.27,90.27,0,0,0,3.15,14c.06.17.34.15.33,0v0a5,5,0,0,0,2.92.59,6.5,6.5,0,0,0,3.23-1.2.52.52,0,0,0,.1-.11.32.32,0,0,0,.31-.18,9.3,9.3,0,0,0,.43-.9c2.52,3.32,5.49,6.34,8.32,9.38,3.08,3.31,6.22,7.27,9.91,9.89a.36.36,0,0,0,.48-.09c0,.15,0,.3.07.45a.29.29,0,0,0-.14,0A17.44,17.44,0,0,0,71.82,138.58Zm3.74-.46a.36.36,0,0,0,.11-.25.25.25,0,0,0,.31-.2,17.89,17.89,0,0,0,.19-3.51c0-.34,0-.69,0-1,2.17-.73,4.27-1.62,6.38-2.49a32.9,32.9,0,0,0,5.23-2.38c2,.6,4,1.16,6.06,1.71l-6,2.76-.14.07c-3.76,1.75-7.53,3.5-11.28,5.28a.16.16,0,0,0-.09.17c-.69.32-1.38.64-2.06,1A.93.93,0,0,0,74,139,6,6,0,0,0,75.56,138.12Zm20.3,2.31A33.51,33.51,0,0,0,90,132.54l1.5-.67c.89,1,1.9,1.83,2.84,2.75S96,136.57,97,137.38A20.76,20.76,0,0,0,95.86,140.43Zm-12.39-4.32c2.08-1,4.09-2.15,6-3.31a61,61,0,0,1,6,8.31.19.19,0,0,0,.07.08,59.3,59.3,0,0,0-7,3.4.25.25,0,0,0,0-.17A25,25,0,0,0,83.47,136.11Zm37.05-11.77a5.72,5.72,0,0,0,1.28,1.32l.65.59,0,0c-7,8.31-16.3,14.48-25.11,20.73a23.22,23.22,0,0,0,.49-5c4.59-2.11,8.89-5.12,13.21-7.72a.39.39,0,0,0-.39-.67c-4.28,2.58-8.9,5-12.9,8-.2-.25-.69-.27-.75.12a23.61,23.61,0,0,0-.33,5.51c-.85-.46-1.71-.95-2.52-1.5s-1.56-1.33-2.36-2a36.38,36.38,0,0,0,3.94-1.86.32.32,0,0,0,.17-.32s0,0,0,0a23.62,23.62,0,0,0,1.88-4.13.39.39,0,0,0-.4-.48A15.15,15.15,0,0,0,94.92,134a16.38,16.38,0,0,0-3-2.35l2.55-1.14a.3.3,0,0,0,.2-.3l3.85,1.05a3.64,3.64,0,0,0,.51.14.34.34,0,0,0,.14,0c-1.14.72-2.28,1.44-3.37,2.24-.16.13-.07.46.16.37a44.93,44.93,0,0,0,11.63-7.36l.09,0a.33.33,0,0,0,.39-.44c1.07-.91,2.1-1.84,3.07-2.76l.07-.1c.68.4,1.36.8,2,1.18a.42.42,0,0,0,.43-.73c-5.95-4.27-12.16-8.21-18.15-12.43l.39-.24c3-1.81,6.2-3.51,9.3-5.29,3,2.25,6.2,4.32,9.38,6.39,2.87,1.88,5.78,4.23,8.91,5.69a20.53,20.53,0,0,0-2.06.13,20,20,0,0,0-2.66.34,5.66,5.66,0,0,0-1.39-1.11c-1.59-1.17-3.2-2.33-4.84-3.43a109.3,109.3,0,0,0-10.22-6.05.18.18,0,0,0-.18.31c2.69,1.74,5.34,3.54,8,5.33,1.26.85,2.51,1.72,3.76,2.59l1.86,1.33.74.53a2.43,2.43,0,0,0,1.31.73,18.88,18.88,0,0,0-3.84,5.49c-.14.31.23.68.5.45a.14.14,0,0,0,.12.08,34.22,34.22,0,0,0,3.86-.12,32.66,32.66,0,0,0-7.23,9.07c-.14.25.22.57.41.32,1.28-1.64,2.47-3.34,3.81-4.94s2.89-3,4.2-4.6c.27,0,.53-.08.78-.14C120.51,124.28,120.5,124.31,120.52,124.34Z"/><path class="cls-1" d="M110.13,131.23a9.67,9.67,0,0,0-3.13,0,.28.28,0,0,0,0,.55,10,10,0,0,0,3.13,0A.27.27,0,0,0,110.13,131.23Z"/><path class="cls-1" d="M109.25,130.89c.22,0,.37-.26.16-.37a2.82,2.82,0,0,0-1.24-.45c-.24,0-.28.29-.11.41A2.65,2.65,0,0,0,109.25,130.89Z"/><path class="cls-1" d="M101.22,122.1a3.81,3.81,0,0,0-1.34.69c-.46.29-.91.6-1.37.9a.22.22,0,0,0,.22.39l1.48-.73a3.82,3.82,0,0,0,1.28-.79A.28.28,0,0,0,101.22,122.1Z"/><path class="cls-1" d="M99.36,121.7a9.26,9.26,0,0,0-2.75.69c-.38.12-.22.71.16.6a9.25,9.25,0,0,0,2.71-.87A.23.23,0,0,0,99.36,121.7Z"/><path class="cls-1" d="M36.52,94.22a6.07,6.07,0,0,0-1.13,1.24.24.24,0,0,0,.32.32A6.09,6.09,0,0,0,37,94.65.31.31,0,0,0,36.52,94.22Z"/><path class="cls-1" d="M36.9,92.39c.29-.15,0-.58-.26-.44a4.16,4.16,0,0,0-2.31,2.48.16.16,0,0,0,.3.12A6.61,6.61,0,0,1,36.9,92.39Z"/><path class="cls-1" d="M39.41,79.19a6,6,0,0,0-.47-2c-.09-.32-.52-.18-.48.13a6,6,0,0,0,.4,2A.3.3,0,0,0,39.41,79.19Z"/><path class="cls-1" d="M62.39,104.56a.18.18,0,0,0,.1-.26c-.23-.4-.83-.37-1.24-.45-.18,0-.32.22-.13.3C61.48,104.33,62,104.73,62.39,104.56Z"/><path class="cls-1" d="M69,104.22a.27.27,0,0,0-.13-.49,2.41,2.41,0,0,1-1.42-.28c-.2-.14-.43.17-.26.34A1.59,1.59,0,0,0,69,104.22Z"/><path class="cls-1" d="M49.59,102.48a18.49,18.49,0,0,0-.35-2.35c-.05-.31-.51-.18-.46.12a17.26,17.26,0,0,0,.41,2.28A.2.2,0,0,0,49.59,102.48Z"/><path class="cls-1" d="M58.4,125.56c-.32-.13-.65-.23-1-.34s-.29.21-.13.31a4.75,4.75,0,0,0,1.55.83c.2,0,.4-.23.22-.37A2.64,2.64,0,0,0,58.4,125.56Z"/><path class="cls-1" d="M65.14,131.37c-.16-.17-.41.08-.25.25a7.37,7.37,0,0,0,.81.77c.13.08.3-.09.21-.21A5.36,5.36,0,0,0,65.14,131.37Z"/><path class="cls-1" d="M99.63,104.22c-.29.15-.08.57.22.51a5.26,5.26,0,0,0,1.19-.47c.26-.12.07-.52-.2-.45A5.23,5.23,0,0,0,99.63,104.22Z"/><path class="cls-1" d="M92,106.4a2.43,2.43,0,0,0-.82.45c-.24.23,0,.55.3.51a2.7,2.7,0,0,0,.84-.4C92.65,106.75,92.32,106.25,92,106.4Z"/><path class="cls-1" d="M93.06,117.92c.36-.38.84-1.09,1.39-1.19a.16.16,0,0,0,0-.31,1.72,1.72,0,0,0-1.23.27,1.18,1.18,0,0,0-.51,1.07A.23.23,0,0,0,93.06,117.92Z"/><path class="cls-1" d="M73.8,120.25a4.79,4.79,0,0,0,.76,0,.23.23,0,0,0,0-.46,4.79,4.79,0,0,0-.76,0A.21.21,0,0,0,73.8,120.25Z"/><path class="cls-1" d="M101.5,134.38c-.17.16-.33.34-.49.5,0,0-.05-.09-.11-.09a.13.13,0,0,0-.05.25c-.16.17-.33.32-.49.5a.22.22,0,0,0,.31.3c.4-.36.78-.74,1.15-1.13A.23.23,0,0,0,101.5,134.38Z"/><path class="cls-1" d="M112.85,128.28a4.75,4.75,0,0,0,1.17-.87c.23-.23-.06-.55-.33-.43a4.77,4.77,0,0,0-1.22.8C112.19,128,112.55,128.45,112.85,128.28Z"/><path class="cls-1" d="M104.5,113.83c-.14-.21-.48,0-.34.2.27.4.55.76.85,1.13.09.11.24,0,.19-.14C105,114.61,104.76,114.22,104.5,113.83Z"/><path class="cls-1" d="M90.22,63.06a.16.16,0,0,0-.13-.07,3,3,0,0,0-2.75,2.65.43.43,0,0,0,.31.41,2.61,2.61,0,0,0,2.22-.68,2.24,2.24,0,0,0,.78-2.11A.35.35,0,0,0,90.22,63.06Zm-.8,1.67a1.84,1.84,0,0,1-1.18.53A2.57,2.57,0,0,1,90,63.41,2.12,2.12,0,0,1,89.42,64.73Z"/><path class="cls-1" d="M88.15,72.11a.32.32,0,0,0-.29.39.18.18,0,0,0-.1.15,3,3,0,0,0,2.07,3.14.41.41,0,0,0,.51-.29A2.55,2.55,0,0,0,90,73.23,2.24,2.24,0,0,0,88.15,72.11Zm0,.67a2.07,2.07,0,0,1,1.25.91,1.76,1.76,0,0,1,.25,1.15A2.57,2.57,0,0,1,88.15,72.78Z"/><path class="cls-1" d="M90.48,49.56a.18.18,0,0,0-.15-.11,3,3,0,0,0-3.17,2,.42.42,0,0,0,.29.51,2.53,2.53,0,0,0,2.28-.28,2.26,2.26,0,0,0,1.14-1.87A.31.31,0,0,0,90.48,49.56Zm-1.21,1.52a1.81,1.81,0,0,1-1.15.23,2.57,2.57,0,0,1,2.08-1.47A2.1,2.1,0,0,1,89.27,51.08Z"/><path class="cls-1" d="M88,38.17a.3.3,0,0,0-.19.41.16.16,0,0,0-.09.14,3,3,0,0,0,2.36,2.91.43.43,0,0,0,.51-.29A2.55,2.55,0,0,0,90,39.09,2.23,2.23,0,0,0,88,38.17Zm1.84,2.54a2.58,2.58,0,0,1-1.71-1.89,2.15,2.15,0,0,1,1.29.7A1.82,1.82,0,0,1,89.82,40.71Z"/><path class="cls-1" d="M84,57.75a.19.19,0,0,0,0-.17,3,3,0,0,0-3.69-.75.43.43,0,0,0-.15.57c.62,1.28,2.9,2.12,4,.83A.31.31,0,0,0,84,57.75ZM82.11,58a1.83,1.83,0,0,1-1-.64,2.56,2.56,0,0,1,2.52.4A2.08,2.08,0,0,1,82.11,58Z"/><path class="cls-1" d="M71.9,55.85a.17.17,0,0,0-.17,0,3,3,0,0,0-1.43,3.47.43.43,0,0,0,.52.29c1.42-.38,2.65-2.5,1.52-3.78A.28.28,0,0,0,71.9,55.85Zm-.08,1.91a1.84,1.84,0,0,1-.83.89,2.63,2.63,0,0,1,.84-2.41A2.15,2.15,0,0,1,71.82,57.76Z"/><path class="cls-1" d="M79.52,68.89a.15.15,0,0,0,0-.17,3,3,0,0,0-3.72-.55.43.43,0,0,0-.14.57c.72,1.31,3,2,4,.57A.27.27,0,0,0,79.52,68.89Zm-1.89.38a1.82,1.82,0,0,1-1-.59,2.6,2.6,0,0,1,2.54.24A2.1,2.1,0,0,1,77.63,69.27Z"/><path class="cls-1" d="M76.44,47.22a.3.3,0,0,0,.43-.14A.17.17,0,0,0,77,47a3,3,0,0,0,.38-3.72.41.41,0,0,0-.57-.15C75.58,43.94,75,46.3,76.44,47.22Zm.49-3.09a2.56,2.56,0,0,1-.12,2.54,2.12,2.12,0,0,1-.42-1.41A1.86,1.86,0,0,1,76.93,44.13Z"/><path class="cls-1" d="M96.62,59.56a.29.29,0,0,0,.3-.34.19.19,0,0,0,.12-.11,3,3,0,0,0-1.45-3.46.41.41,0,0,0-.56.15C94.29,57.07,94.91,59.44,96.62,59.56Zm-1.05-3a2.61,2.61,0,0,1,1.11,2.3,2.13,2.13,0,0,1-1.06-1.09A1.8,1.8,0,0,1,95.57,56.6Z"/><path class="cls-1" d="M105.22,59.15a2.55,2.55,0,0,0,2.22-.66,2.24,2.24,0,0,0,.79-2.11.33.33,0,0,0-.42-.2.16.16,0,0,0-.14-.07,3,3,0,0,0-2.76,2.64A.43.43,0,0,0,105.22,59.15Zm2.37-2.62a2.14,2.14,0,0,1-.6,1.32,1.83,1.83,0,0,1-1.18.52A2.6,2.6,0,0,1,107.59,56.53Z"/><path class="cls-1" d="M100.69,68.57a.43.43,0,0,0,.15.57c1.25.82,3.61.29,3.83-1.4,0-.21-.15-.3-.32-.29a.17.17,0,0,0-.12-.14A3,3,0,0,0,100.69,68.57Zm3.32-.91a2.12,2.12,0,0,1-1.17,1,1.86,1.86,0,0,1-1.19,0A2.58,2.58,0,0,1,104,67.66Z"/><path class="cls-1" d="M99.06,46.12c1.26.79,3.63.23,3.81-1.46,0-.21-.14-.3-.31-.29a.18.18,0,0,0-.12-.13,3,3,0,0,0-3.53,1.31A.43.43,0,0,0,99.06,46.12Zm3.16-1.53a2.14,2.14,0,0,1-1.15,1,1.86,1.86,0,0,1-1.19,0A2.54,2.54,0,0,1,102.22,44.59Z"/><path class="cls-1" d="M57.61,55.1c1,2.27.09,3.22-.49,5.25a4.59,4.59,0,0,0-.24.88c-.06,1.61,1.49,2.5,1.69,4.06s-.69,3-.81,4.47A3.09,3.09,0,0,0,58.24,72c.84,1.1,4,1.1,3.86,2.88,0,.13.17.15.24.06l.08-.14q-.24,1.64-.39,3.27a.46.46,0,0,0,.33.43l4.68.66a48.28,48.28,0,0,0,.9,4.77.37.37,0,0,0,.31.28.31.31,0,0,0,.14.5,26.5,26.5,0,0,0,4.76.67,4.21,4.21,0,0,1,1.27,1.22,3.66,3.66,0,0,1,.51,2.67c.07.16,0,.27.12.44a2.52,2.52,0,0,0,2.12.9,19.91,19.91,0,0,0,3.65-.84c2.7-.53,3.3,1.33,5.13,2.55,2.33,1.56,3.9-.28,5.89-1.43,3.19-1.84,5.56,1.66,8.64.62,2.93-1,1.94-5.27,5.08-5.94,1.29-.27,2.58.31,3.78-.47a5,5,0,0,0,.91-.92c1-1.08,1.66-1.9,3.17-2.21,2.53-.54,4.36-1.31,5.38-3.84,1.45-3.61.28-7.54,2.28-11a.49.49,0,0,0,0-.37l.09-.12h0c1.64-.47,2.38-2.8,2.41-4.34.06-2.79-3-4-2.33-6.88.48-2.14,2.15-3.82,1.21-6.12-.68-1.67-2.34-2.65-3.67-3.75a5,5,0,0,1-2.16-3.44,14.4,14.4,0,0,0-.29-3.14c-.63-1.71-2.34-2.49-3.84-3.3a6.8,6.8,0,0,1-3.08-2.8,4,4,0,0,0-1.1-1.6c-1.75-1.24-4.08.13-5.94-.67-.57-.89-1.15-1.77-1.76-2.62a.26.26,0,0,0-.44,0,14.84,14.84,0,0,0-2.09.1.32.32,0,0,0,0-.27,4.63,4.63,0,0,0-3.76-2.69c-2.25-.28-3.74,1.57-5.78,1.8-.59-.53-1.18-1.07-1.75-1.61a.18.18,0,0,0-.09,0,.36.36,0,0,0-.55-.11c-1.59,1.19-3.21,2.44-4.79,3.77a.44.44,0,0,0-.25-.37c-2.77-1.42-4.89,1.95-7.66,1.29-2.56-.6-4.06-.63-5.45,2-.72,1.35-.84,2.93-1.57,4.27S65.12,37.8,63.42,38c-.72.08-1.07,0-1.65.39a3.4,3.4,0,0,0-1.23,2.39c-.3,2.12,0,4.07-2.33,5.21s-3.4,2.43-2.7,5C55.92,52.52,57,53.69,57.61,55.1Zm5.83,22.62c-1.18-1.08.07-4.29.37-5.73s.7-2.77,1.09-4.15c.12.34.24.69.38,1A24.08,24.08,0,0,0,73.19,79c-1.17-.16-2.35-.33-3.53-.48l-3.35-.44C65.67,78,63.84,78.08,63.44,77.72ZM61.7,55.65c.15-1.06.3-2.11.46-3.16a24.69,24.69,0,0,1,1.93-5.63A31.34,31.34,0,0,1,77.3,32.79a29.49,29.49,0,0,0-2.43,3l0,0a22.11,22.11,0,0,0-5.23,4.56,28.6,28.6,0,0,0-5.07,26.51,24.15,24.15,0,0,0-.87,2.33A32.17,32.17,0,0,1,61.7,55.65Zm38.7-27.14a97.07,97.07,0,0,0,4.71,8.6,24.16,24.16,0,0,0-5.3-3,.42.42,0,0,0-.18,0,22.29,22.29,0,0,0-3-1.17l-.06-.08c-1.26-1-2.69-1.86-4-2.8A28.91,28.91,0,0,0,100.4,28.51Zm19.77,37.88a6.58,6.58,0,0,0-.47.7c-.8.62-1.58,1.29-2.39,1.89-1,.76-2.14,1.4-3.21,2.1a13.34,13.34,0,0,0-.28-2.37,25.68,25.68,0,0,0,1.32-3.63,24.31,24.31,0,0,0,.83-5.19,18.24,18.24,0,0,0,4.71,6.34A.46.46,0,0,0,120.17,66.39ZM90.37,84.12A27.58,27.58,0,0,0,102.21,81a31.4,31.4,0,0,0,3.51,0,31,31,0,0,1-24.55,3.71,26.87,26.87,0,0,0,3.49-1A30,30,0,0,0,90.37,84.12Zm18-4.61c-1.5.23-3,.37-4.52.58a25.67,25.67,0,0,0,9.12-9.58c0,1.12.13,2.24.18,3.35a41.64,41.64,0,0,0,.35,4.86C111.74,78.84,110,79.26,108.33,79.51Zm9-19.22c-.44-.73-.87-1.47-1.28-2.22A27.2,27.2,0,0,0,107.38,39c-.86-1.5-1.71-3-2.58-4.53C113.33,40.18,117.61,50.14,117.28,60.29ZM95,33.43c1.55.56,3.11,1.06,4.65,1.62,9.4,4.6,16,14.84,15,25.4A24.82,24.82,0,0,1,93.86,82.51C84,84.14,73.55,80.45,68.2,71.79c-5.22-8.44-4.74-19.72.42-28.08C74.19,34.68,85,31.48,95,33.43ZM68.56,84.08a.4.4,0,0,0,.13-.37,43.68,43.68,0,0,0-1.16-4.5c2.47.35,4.93.69,7.4,1,0,0,0,0,.07,0a26.22,26.22,0,0,0,7.16,3A66.81,66.81,0,0,1,68.56,84.08Zm49.73-9.32c-.22,2.26-.89,4.67-3.23,5.57-1.23.48-2.62.38-3.82,1-1.43.72-2,2.68-3.67,3-1.24.27-2.35-.27-3.55.37-2.73,1.47-1.41,6.16-5.51,5.63-2.46-.32-4.18-2-6.69-.75-1.91,1-3.14,3.24-5.6,1.59-1-.66-1.54-1.75-2.65-2.25-2-.93-6.61,1.88-7.66-.2-.42-.82-.22-1.79-.85-2.66a4.42,4.42,0,0,0-.61-.68,29.29,29.29,0,0,0,4.08-.23A31.78,31.78,0,0,0,108.1,80.9l.06-.07a24.25,24.25,0,0,0,5.46-1.28s0,.07,0,.1c.06.23.46.26.5,0s0-.24,0-.36a.41.41,0,0,0,0-.46,39.26,39.26,0,0,0-.06-5c0-.59,0-1.19,0-1.78a18.63,18.63,0,0,0,4.71-2.9A39.21,39.21,0,0,0,118.29,74.76ZM105.16,31.43a3.54,3.54,0,0,1,3.72,2,9.28,9.28,0,0,0,1,1.6c1.16,1.21,2.84,1.62,4.14,2.63,2.28,1.76.88,4.27,2.09,6.49.81,1.46,2.32,2.35,3.56,3.4,1.08.91,1.93,1.75,2,3.24a8.39,8.39,0,0,1-1,3.31c-.68,1.71-.86,3.09.19,4.67.81,1.21,1.67,1.87,1.63,3.45s-.85,2.43-1.42,3.68c-.79-1.36-1.78-2.61-2.66-3.91a.62.62,0,0,0,.15-.35c.84-11.48-4.11-23-14-29.1a.61.61,0,0,0-.73,0l-.81-1.36A6.63,6.63,0,0,0,105.16,31.43Zm-13.68-5c2.35-1.21,4.4-.38,5.92,1.62l0,0a45.93,45.93,0,0,0-5.72,1.35h0c-.84-.66-1.66-1.34-2.47-2A8.39,8.39,0,0,0,91.48,26.47Zm-4.78-.59,0,0A28.51,28.51,0,0,0,94,32.5a.27.27,0,0,0-.07.08,26.62,26.62,0,0,0-16.9,2A126.42,126.42,0,0,1,86.7,25.88Zm-28.31,21c2.27-1.42,3-1.87,3.08-4.68.06-1.44-.19-2.82,2-3.27.58-.12,1,.07,1.62-.13a3.76,3.76,0,0,0,1.85-1.49A12.66,12.66,0,0,0,68.3,34a8.48,8.48,0,0,1,1-2.27c1.08-1.54,2-1.18,3.71-.94a5.22,5.22,0,0,0,2.69,0c1.56-.5,3.3-2.29,5-1.4l.12,0-1,.91a.53.53,0,0,0-.43,0A31.61,31.61,0,0,0,63.13,46.3a25.28,25.28,0,0,0-1.93,6.3A20,20,0,0,0,60.64,58a.41.41,0,0,0,.1.22A35.34,35.34,0,0,0,63,70.18a.49.49,0,0,0,.32.31c-.28,1-.51,2.09-.69,3.14-.34-.72-1.64-1-2.34-1.5-3.06-2-.15-4.78-.83-7.51-.44-1.76-1.85-2.26-1.37-4.3.34-1.43,1-2.45.76-4C58.27,52.78,53.72,49.84,58.39,46.92Z"/><path class="cls-1" d="M47.74,58.42c.3.22.62-.25.38-.5a1.17,1.17,0,0,0-.51-.32c-.19-.09-.43.1-.3.3A1.45,1.45,0,0,0,47.74,58.42Z"/><path class="cls-1" d="M46.31,66.4a.56.56,0,0,0,0-1.12A.56.56,0,0,0,46.31,66.4Z"/><path class="cls-1" d="M52.5,72.64a.41.41,0,0,0,.27.34.45.45,0,0,0,.53-.16.42.42,0,0,0,.15-.52.38.38,0,0,0-.34-.27l-.2-.09a.4.4,0,0,0-.49.5Z"/><path class="cls-1" d="M47.08,74.07a.22.22,0,0,0,0-.43A.22.22,0,0,0,47.08,74.07Z"/><path class="cls-1" d="M66.08,93.79a8.75,8.75,0,0,0,.69.67c.4.47,1.36-.15.94-.72a10,10,0,0,0-.7-.88C66.41,92.25,65.55,93.15,66.08,93.79Z"/><path class="cls-1" d="M70,91.86A.45.45,0,0,0,70,91,.45.45,0,0,0,70,91.86Z"/><path class="cls-1" d="M73.44,97.57l.08.11a.33.33,0,0,0,.56,0l.07-.11c.15-.14.19-.26.15-.37s-.25-.31-.5-.28-.51,0-.51.28A.37.37,0,0,0,73.44,97.57Z"/><path class="cls-1" d="M111.93,95a2.51,2.51,0,0,0,.21.77.24.24,0,0,0,.41,0,2.2,2.2,0,0,0,.21-.77A.43.43,0,1,0,111.93,95Z"/><path class="cls-1" d="M113.47,102.08l-.11.08a.72.72,0,1,0,1,0l-.1-.08A.58.58,0,0,0,113.47,102.08Z"/><path class="cls-1" d="M116.15,97.9a.91.91,0,0,0,.1.56.35.35,0,0,0,.59,0,.91.91,0,0,0,.1-.56A.4.4,0,0,0,116.15,97.9Z"/><path class="cls-1" d="M152.46,102.28c3.68-7.08,2.57-17.12-2.26-23.38-4.68-6.07-13.39-8.72-20.31-5-6,3.26-15.49,13-9.57,20.07a26,26,0,0,0,3.18,4.81,29.23,29.23,0,0,0,10.05,8.4C140.05,110.26,148.88,109.16,152.46,102.28Zm-14.13,4.87c-4.51-.72-8.37-3.43-11.58-6.55a33,33,0,0,1-5.26-6.24,1.12,1.12,0,0,0,0-.13c-3-4.5-1-9.54,2.27-13.23,3.09-3.44,7.15-6.81,11.93-7.23,9.6-.82,16.47,7.72,17.25,16.6.4,4.47-.19,10-3.35,13.45C146.75,106.86,142.28,107.79,138.33,107.15Z"/><path class="cls-1" d="M139.91,100c-4.41.25-8.58-.68-10.88-4.87-2-3.61-1.75-8.34,2.09-10.53a.14.14,0,0,0-.07-.27c-4.86.17-5,7-3.69,10.32,1.94,4.75,7.61,8.15,12.69,6.36C140.56,100.86,140.52,100,139.91,100Z"/><path class="cls-1" d="M131.37,79.5a.24.24,0,0,0,.24.42A8.46,8.46,0,0,1,141.08,81c2,1.69,3.15,4.08,4.28,6.38.16.33.59.08.54-.23C144.84,80.68,137.42,75.25,131.37,79.5Z"/><path class="cls-1" d="M141.17,92.83c-.87.15-1.58.68-2.49.77a4,4,0,0,1-2.67-.72,4.42,4.42,0,0,1-1.52-4.94c.1-.28-.35-.47-.47-.2a5,5,0,0,0,1.25,6.08c1.55,1.22,5.3,1.78,6.38-.37A.43.43,0,0,0,141.17,92.83Z"/><path class="cls-1" d="M139.05,87.09c1.07-.23,1.48.91,2,1.53a.35.35,0,0,0,.59-.24c-.09-1.87-2.8-3.33-4.06-1.58a1.38,1.38,0,0,0,.31,2,1.16,1.16,0,0,0,1.74-.34.22.22,0,0,0-.34-.26c-.28.25-.84,0-.94-.34S138.71,87.17,139.05,87.09Z"/><path class="cls-1" d="M125,92.75c.4-.8-.11-1.69,0-2.52.15-1.3.9-2.37.19-3.68s-2.79-1.44-3.38-.27a1.67,1.67,0,0,0-.23.23,1.53,1.53,0,0,0-.33,1.4,5.43,5.43,0,0,0,.26,4C122.06,93.13,124.1,94.52,125,92.75Zm-1.15,0c-1.26.55-1.94-1.59-2.09-2.41a5.47,5.47,0,0,1,.11-2.51,2.5,2.5,0,0,1,.07-.26,1.51,1.51,0,0,1,.09-.18.29.29,0,0,0,.31-.24.84.84,0,0,1,.34-.54,1.51,1.51,0,0,1,.28-.15,1.34,1.34,0,0,1,.45-.09c.67,0,1,.6,1.19,1.21a5.42,5.42,0,0,1-.39,2.35C124,90.72,124.83,92.29,123.84,92.72Z"/><path class="cls-1" d="M126.09,95.12c-1.11-.87-2.83,1.06-1.61,1.83a.26.26,0,0,0,.27,0s0,0,0,.06C125.9,97.75,127.1,95.92,126.09,95.12Zm-1.19,1.64a.32.32,0,0,0,0-.14c-.09-.35.23-1.22.75-1S125.39,96.93,124.9,96.76Z"/><path class="cls-1" d="M150.92,94.37c.69-1.64,1.66-5.11,0-6.51-.94-.77-2.85-.13-2.35,1.24a.3.3,0,0,0,.59-.08c1-.69,1.58-.65,1.7.11a2.33,2.33,0,0,1,.19,1.14,10,10,0,0,1-.23,2.24,10.34,10.34,0,0,1-.53,1.63c-.39,1-.49,1.49-1.57,1.65s-.87-.12-.83-1c0-.66.17-1.34.24-2,.16-1.33.31-2.66.37-4,0-.16-.26-.2-.29,0-.35,1.67-.56,3.35-.79,5-.11.84-.4,2,.12,2.77C148.82,98.45,150.52,95.32,150.92,94.37Z"/><path class="cls-1" d="M147.27,84.22c.38,1.37,2.79.72,2.52-.67s-3-1.26-2.76.31a.26.26,0,0,0,.29.23A.14.14,0,0,0,147.27,84.22Zm.39-.36a.9.9,0,0,1,.71-.59c.33-.06.79,0,.91.38.29.9-1.38,1.18-1.76.47a.12.12,0,0,0-.1-.06A.4.4,0,0,0,147.66,83.86Z"/></g></g></svg>