<svg xmlns="http://www.w3.org/2000/svg" viewBox="0 0 178.19 176.61"><defs><style>.cls-1{fill:#1a1a1a;}</style></defs><g id="Capa_2" data-name="Capa 2"><g id="OBJECTS"><path class="cls-1" d="M145.16,132.69a70.61,70.61,0,0,0,14.69-37.84,65.76,65.76,0,0,0-9.74-39C143.37,44.7,134.22,34.42,122.74,28,111.05,21.5,97.08,17.38,83.62,18A40.48,40.48,0,0,0,70.29,20.2c-2.31.62-4.58,1.34-6.76,2.13a70.68,70.68,0,0,0-17.9,9.44C35.05,39.55,28.09,50.87,23.35,63,18.78,74.63,17,86.48,18.8,99a78.4,78.4,0,0,0,2.92,12.47.49.49,0,0,0,.21.27,18,18,0,0,0-2.15,15.8.35.35,0,0,0,.35.27c1.5,5.53,6.93,8.83,12.84,9.81a11.78,11.78,0,0,0,4.46-.18A76.41,76.41,0,0,0,74.21,157.3c13.61,2.88,28.54,1.19,41.54-3.57A65.66,65.66,0,0,0,145.16,132.69ZM27.52,134.38a14.63,14.63,0,0,1-4.38-2.91,17.88,17.88,0,0,1-3-6.93c-.47-7.08,2.78-14.54,9.79-17.08,8.09-2.93,15.9,1.8,18.35,9.77,2.31,7.55-1.66,14.8-8.76,17.86a14,14,0,0,1-2,.68.63.63,0,0,0-.53.13C33.75,136.58,30.8,135.81,27.52,134.38Zm96.32,14.29a77.14,77.14,0,0,1-43.7,8.22c-15.35-1.8-30-9.35-41.2-19.91a18.47,18.47,0,0,0,10-8.72c3-6,1.24-13.54-3.16-18.43-4.61-5.14-12.32-6.13-18.36-3a15.21,15.21,0,0,0-4.78,3.93c-4-12.71-4.89-26.23-1.24-39.12,3.4-12,9.16-24.14,17.92-33.14C47.83,29.78,59.37,24,71.18,21.07c2.82-.53,5.64-1,8.51-1.33s5.67-.19,8.5-.34A77.28,77.28,0,0,1,113,24.91a68.27,68.27,0,0,1,17.42,9.85,79,79,0,0,1,13.09,13.88c8.18,10.68,14,23.26,15,36.8C160.33,111,146.59,136.71,123.84,148.67Z"/><path class="cls-1" d="M176.31,73.33C172.1,54.57,160.88,38,147.44,24.58c-12.78-12.78-31-20.4-48.63-23.38A83.61,83.61,0,0,0,85.22,0a.71.71,0,0,0-.47.17A51.87,51.87,0,0,0,65.38,2.8,89,89,0,0,0,33.68,18C19.56,28.64,10.57,44.61,4.85,61.11a86,86,0,0,0-2.53,48.32c4.34,18.67,14,34.79,29,46.72C46,167.73,64.22,175.66,83,176.51c18.31.83,37.4-3.34,53.34-12.47C167.12,146.4,184.09,108,176.31,73.33Zm-31,83.07c-13.77,10.79-30.9,16.66-48.2,18.3a86.15,86.15,0,0,1-27.83-1.5,92.43,92.43,0,0,1-26-10.53c-15.78-9.31-28.59-22.53-35.52-39.62-6.53-16.12-9-34.59-4.94-51.65C6.62,55.45,14,39.22,25.1,27,35.91,15.2,51.14,7.37,66.72,3.6c3.47-.69,6.93-1.34,10.47-1.69,3.26-.31,6.53-.27,9.79-.34a94.59,94.59,0,0,1,50.19,16.27c7.05,4.83,13,11.11,18.35,17.71a103.8,103.8,0,0,1,14.84,24C184.74,92.75,173.72,134.11,145.28,156.4Z"/><path class="cls-1" d="M48.82,14.86c.73-.35.09-1.42-.63-1.08-14.61,6.9-28.11,20-32.85,35.82a.14.14,0,0,0,.26.11c3.69-7.44,7.74-14.34,13.46-20.45A66.07,66.07,0,0,1,48.82,14.86Z"/><path class="cls-1" d="M50.86,13.2a8,8,0,0,0,1.87-.46,2.33,2.33,0,0,0,1.46-.85.36.36,0,0,0-.21-.52,2.37,2.37,0,0,0-1.66.41,8.43,8.43,0,0,0-1.64,1A.27.27,0,0,0,50.86,13.2Z"/><path class="cls-1" d="M164.41,124.2c-3.69,7.44-7.74,14.33-13.46,20.44A65.9,65.9,0,0,1,131.19,159c-.73.35-.09,1.42.63,1.08,14.61-6.9,28.11-20,32.85-35.81C164.72,124.16,164.48,124.05,164.41,124.2Z"/><path class="cls-1" d="M129.15,160.71a8,8,0,0,0-1.87.45c-.54.19-1.16.32-1.45.86a.35.35,0,0,0,.21.51,2.31,2.31,0,0,0,1.65-.41,8,8,0,0,0,1.64-1A.26.26,0,0,0,129.15,160.71Z"/><path class="cls-1" d="M146,96.54A34.41,34.41,0,0,0,142,94.47c-2.19-1.08-4.47-2.58-6.83-3.26a.38.38,0,0,0-.44.23.8.8,0,0,0-.66,1.12c2.43,5.36-4.74,7.77-8.59,8-3.2.18-6.41,0-9.44,1.2a11,11,0,0,0-1.92,1,9.67,9.67,0,0,1,4.72-6.6A16.74,16.74,0,0,0,123.87,92c3.09-4.12,2.86-8.65,1.69-13.4-.94-3.86-1-6.93,2.48-9.41a18.41,18.41,0,0,0,4.77-4.33,14.58,14.58,0,0,0,2-13,.68.68,0,0,0-1-.39.52.52,0,0,0-.54-.48c-2.4.12-4.8.38-7.2.59a5.35,5.35,0,0,0,1-.9.28.28,0,0,0,.09-.1,7.94,7.94,0,0,0,1.28-7.5c-1.3-4.17-5.27-7.32-8.84-9.55s-7.78-3.18-11.49-.66a13.14,13.14,0,0,0-5.43,9.34,8.22,8.22,0,0,0-2.44-1.61.45.45,0,0,0,.06-.12c1.58-6-2.46-11.76-8.13-13.54C85,24.64,77.62,28.17,71.85,32.43A28.07,28.07,0,0,0,66.09,38a10.33,10.33,0,0,0-1.53.85l-.22,0c-5.47,2-7.94,7.29-12.1,10.91C49.53,52.1,46,52.59,43,54.42a15,15,0,0,0-5.62,6.3,17.38,17.38,0,0,0-1.3,9,16.15,16.15,0,0,1-3.52,11.8c-1.57,2-3.43,3.82-4,6.31-1.09,2-.23,4.3,1.4,5.89,3.26,3.2,8.42,2,12.34,3.82,8.45,3.86,10.15,14.81,17.67,19.83,5.6,3.73,13.7,2.32,15.34-4.81,1.13-4.94,1.51-9.71,4.74-13.9s8.54-5.49,12.6-8.71c2.86-2.26,5.37-6,4.45-9.79-.62-2.57-2.8-4.38-3.3-7a9.26,9.26,0,0,1,2.57-8.2.85.85,0,0,0,.21-.44l.33-.46a8.23,8.23,0,0,0,1.2-2,.36.36,0,0,0,0-.25A17.18,17.18,0,0,0,101,58.86c.59,3.49,4.59,6.59,8.18,6.38-1.81,1.52-3.46,3.22-4,5.57-1.56,6.27,5.92,13-.39,18.15C101.07,92,95.2,93,93.08,97.76c-1.49,3.33-.07,6.95-.06,10.4a12.93,12.93,0,0,1-3,8.64,16.64,16.64,0,0,0-3.15,2.89c-1.3,1.55-2.21,3.47-4.21,4.21-2.3.86-5,.08-7.35-.24a16.71,16.71,0,0,0-8.29.87,17.16,17.16,0,0,0-11.26,14.29.36.36,0,0,0,.32.38,38.33,38.33,0,0,0,3.26,5.38A21.83,21.83,0,0,0,63,149.24a.34.34,0,0,0,.66-.11,9.93,9.93,0,0,1,8-8.36c4.35-.81,6.62,2.53,10.42,3.54,8.67,2.3,8.89-11.53,15.6-13.26,4.12-1.06,8.42,1,12.62.14a14.38,14.38,0,0,0,8.52-5.44,30.63,30.63,0,0,0,2.44-4.46c1.51-3,3.67-4.06,7-3.9,3.88.18,7.29.72,11-.86a14.84,14.84,0,0,0,7.84-7.76c1.48-3.51,2-8.71-.34-12A.62.62,0,0,0,146,96.54ZM133.45,52.07h.05a.71.71,0,0,0,0,.14,13.73,13.73,0,0,1-5,14.94c-1.7,1.23-3.58,2.28-4.5,4.27a9.46,9.46,0,0,0-.19,6c.66,3,1.84,5.87,1.32,9a11.77,11.77,0,0,1-4.09,7.06c-1.89,1.56-4.27,2.4-5.86,4.34a11.32,11.32,0,0,0-2.26,5.87s0,0,0,0a6.79,6.79,0,0,0-2,3.27c-.5,1.91-.1,4.27-1.65,5.74-1.12,1-2.89,1.15-4.47,1.1.94-2.12.78-4.42.73-6.74-.09-3.68,1-5.82,3.78-8.14,4.2-3.53,8.42-6.54,10.09-12a17.74,17.74,0,0,0,.51-7.93c-.33-2.11-1-4.32-.41-6.45A11.24,11.24,0,0,1,122.64,68c4-4.3,6.1-9.35,4.59-15.24A61.52,61.52,0,0,0,133.45,52.07ZM113.77,76c-.17-2.25-.62-5.21,1-7,.94-1.06,2.37-1.65,3.41-2.62,3-2.82,5.72-9.21,3.69-13.37l1.69-.09,2.27-.12a.55.55,0,0,0,0,.22,13.57,13.57,0,0,1-1.44,10.58c-1.45,2.36-3.8,4-5.26,6.34s-1.31,4.95-.84,7.63c.64,3.58.79,6.83-.59,10.27-2.14,5.39-7,7.83-10.93,11.75s-1.53,9.41-2.57,14.17l-.51,0a33.2,33.2,0,0,0-5.39.13c2.32-3.56,1-9,2.17-12.87,2.06-6.67,11.05-7.92,13.05-14.87C114.48,82.84,114,79.36,113.77,76Zm.84-23.79a.59.59,0,0,0-.37,0l-.51.06a.29.29,0,0,0,0,.56l.22,0a.58.58,0,0,0,.13.15,4.64,4.64,0,0,1,1.76,3.66c-1.09,1.17-2.61,2.51-4,2.49-2,0-2.79-3.4-3.16-4.88-1-3.76-1.27-8.53.75-12,2.22-3.81,7-5.08,10.32-1.91,2.13,2,5.85,9.06,2.76,11.37l-1.33.06a.48.48,0,0,0-.57,0C118.59,52,116.59,52,114.61,52.24Zm.11,7.72a7.62,7.62,0,0,1-.18-.93,8,8,0,0,0,1.16-1.24A7.24,7.24,0,0,1,114.72,60Zm-8-10.67h-.65c-.35,0-.7,0-1.06,0a9.24,9.24,0,0,0-1.35-6c.07-.23.13-.45.2-.67a9.58,9.58,0,0,0,3.57,1.31A16,16,0,0,0,106.72,49.29ZM100,58.38a2.52,2.52,0,0,1-2.11.58,13.61,13.61,0,0,0,2.34-3.46,3.18,3.18,0,0,0,1.53-.11,1.62,1.62,0,0,0,.28-.11A19.57,19.57,0,0,1,100,58.38ZM64.82,46.22a9.88,9.88,0,0,1,1.27-5.8,6.85,6.85,0,0,1,2.63-.07,11.2,11.2,0,0,1,2.5,1,.35.35,0,0,0,.22,0,7.26,7.26,0,0,0-.73,3.85A32.83,32.83,0,0,0,65,46.94C64.91,46.7,64.85,46.47,64.82,46.22ZM80.3,34.57a9.84,9.84,0,0,1,2.43,2.17A9,9,0,0,1,83.84,41c.1,1.53-.06,3.38,1.59,4.1.19.08.39-.13.23-.3-1.23-1.3-.81-3-.94-4.63a10.28,10.28,0,0,0-.7-3.09,5.21,5.21,0,0,0-2.61-3,17,17,0,0,1,6.32-1.46c4.22-.11,8.73,2.21,8.13,7,0,0,0,.06,0,.1A13.32,13.32,0,0,0,88.12,43s0,0-.05,0l-.08.08a19.81,19.81,0,0,0-1.84,1.71.2.2,0,0,0-.3,0c-.39.53-.76,1.08-1.11,1.62l-.14.17a.55.55,0,0,0-.09.19A26.34,26.34,0,0,0,83,49.62a.56.56,0,0,0-.57-.34c-3.64.2-11-.08-10.32-5.36.45-3.47,3.66-6.46,6.42-8.3A20.29,20.29,0,0,1,80.3,34.57ZM96.39,39.7a5.53,5.53,0,0,0,.1-2.9,4.13,4.13,0,0,0,.5,0,.24.24,0,0,0,.09,0,4.38,4.38,0,0,0,1.51-.35c.31-.11.59-.22.88-.35a9,9,0,0,1-.12,4.06s0,0,0,0a10.1,10.1,0,0,0-3-.49S96.39,39.72,96.39,39.7ZM86.74,50.87c-.49-.12-1-.16-1.51-.27s-1-.23-1.56-.36A30.2,30.2,0,0,1,85.52,47c.55.37,1.09.76,1.61,1.18.31.25.61.57.93.86A13.06,13.06,0,0,0,86.74,50.87Zm2-2.53a14.83,14.83,0,0,0-1.17-.93,14.63,14.63,0,0,0-1.42-.95A35.72,35.72,0,0,1,90,43.32c.31.45.63.89,1,1.32s.63.85,1,1.26A13.14,13.14,0,0,0,88.69,48.34Zm4-2.81c-.34-.46-.75-.89-1.1-1.31s-.72-.83-1.1-1.23a13.93,13.93,0,0,1,3.19-1.53,10.32,10.32,0,0,1,.83,2.1,8.31,8.31,0,0,1,.21,1.31A11.49,11.49,0,0,0,92.68,45.53Zm2.75-.79a7.38,7.38,0,0,0-1.33-3.42A8.44,8.44,0,0,1,98,41.17a16.27,16.27,0,0,0-.11,3.69A6.2,6.2,0,0,0,95.43,44.74ZM70.82,45.88a4.69,4.69,0,0,0,.81,1.78,10.78,10.78,0,0,0-2,2,9.75,9.75,0,0,0-1.39,2.13A7.78,7.78,0,0,1,65,47.28,33.37,33.37,0,0,0,70.82,45.88Zm-.49,4.23c.53-.63,1.29-1.19,1.85-1.84A7.83,7.83,0,0,0,75.5,50a6.43,6.43,0,0,0-1,1.94,4.05,4.05,0,0,0-.27,2.21,15.91,15.91,0,0,1-5.51-2C69.24,51.45,69.76,50.77,70.33,50.11Zm4.89,2.21a11.46,11.46,0,0,1,.84-2.17,19.17,19.17,0,0,0,3.66.45,14.1,14.1,0,0,0,.35,3.79,20.31,20.31,0,0,1-5.25-.13A10.61,10.61,0,0,0,75.22,52.32Zm5-1.7c.77,0,1.5,0,2.13,0a.53.53,0,0,0,.18,0,18.57,18.57,0,0,0-1.16,4.19.74.74,0,0,0-.67-.4A14.7,14.7,0,0,0,80.26,50.62Zm1.63,5.45a50.93,50.93,0,0,1,1.49-5.21l.06-.14a6.24,6.24,0,0,0,2.91.87,9.06,9.06,0,0,0-1.06,4.13A15.49,15.49,0,0,0,81.85,57a.23.23,0,0,0-.08.09c0-.3,0-.61.06-.91A.27.27,0,0,0,81.89,56.07Zm.19,1.48a15.81,15.81,0,0,0,3.27-1,5.1,5.1,0,0,0,.14.78.43.43,0,0,0,.21.28,4.73,4.73,0,0,0,.65,1.67,9.21,9.21,0,0,1-1.46,1.4,12,12,0,0,0-1.81,1.18,4.74,4.74,0,0,1-.9-1.61,9.69,9.69,0,0,1-.41-2.83A.33.33,0,0,0,82.08,57.55Zm3.16,3.69a7,7,0,0,0,1.34-1.63,5.78,5.78,0,0,0,1.87,1.63,4.59,4.59,0,0,0-1.53,2.52,6.58,6.58,0,0,1-3.36-1.42A4.43,4.43,0,0,0,85.24,61.24Zm2.7,1.65a9,9,0,0,1,.84-1.48,6.43,6.43,0,0,0,2.54.63,6.65,6.65,0,0,0-.09,1.6,13.79,13.79,0,0,1-3.66.2C87.7,63.52,87.8,63.2,87.94,62.89ZM91.72,62a3.54,3.54,0,0,0,.46,0,7.76,7.76,0,0,0,1.73-.39,2.2,2.2,0,0,0,1.38.6,14.55,14.55,0,0,1-3.46,1.29A7.38,7.38,0,0,0,91.72,62Zm-5.39-4.47a.39.39,0,0,0,.14-.24A18.56,18.56,0,0,1,88.39,51c.77-.1,1.48-.44,2.3-.5a5.11,5.11,0,0,1,3.89,1.4c1.87,1.7,2.3,4,2.27,6.41A9.17,9.17,0,0,1,94.74,60C91.77,61.68,87.3,60.54,86.33,57.56Zm8.79-6.93A7.23,7.23,0,0,0,90,49c2.89-2.81,10.15-5.07,10.3,1.18a12.24,12.24,0,0,1-3,7.71A7,7,0,0,0,95.12,50.63Zm8.9-3.17a6.11,6.11,0,0,1-.76,1.72,2.84,2.84,0,0,1-1.75,1,6.53,6.53,0,0,0-1-3.43,4.41,4.41,0,0,0,2.33-2.69A6.76,6.76,0,0,1,104,47.46ZM102.66,54a6.87,6.87,0,0,1-1.13.78,3.34,3.34,0,0,1-1.11.27,13.1,13.1,0,0,0,1.06-4c0-.16,0-.33,0-.49a2.51,2.51,0,0,0,2.12-.74c.12-.13.24-.28.36-.43A15.5,15.5,0,0,1,102.66,54Zm3.64-17.35c.5.67,1,1.31,1.52,2a9.61,9.61,0,0,0,1.4,2,10.3,10.3,0,0,0-1.52,2.63c-.66-.22-1.34-.37-2-.59s-1.1-.4-1.65-.61A18.81,18.81,0,0,1,106.3,36.63ZM124,51.72a3.76,3.76,0,0,0,.42-1,8.37,8.37,0,0,0,1.58.15,2.83,2.83,0,0,1-.24.25.3.3,0,0,0,.09.48C125.19,51.64,124.57,51.68,124,51.72ZM126.69,50a6.57,6.57,0,0,0-2.21.07,11.08,11.08,0,0,0-.93-5.26c.76-.33,1.55-.58,2.29-1a6.76,6.76,0,0,0,1.54-.84A6.37,6.37,0,0,1,126.69,50Zm.42-7.54a6.91,6.91,0,0,0-1.62.78c-.72.38-1.36.86-2,1.28a16.58,16.58,0,0,0-1.83-3.22,16.71,16.71,0,0,0,1.15-2c.22-.43.49-.88.69-1.34A17.45,17.45,0,0,1,127.11,42.5Zm-4.18-5a17.31,17.31,0,0,0-.81,1.61,19.65,19.65,0,0,0-.82,1.81,11,11,0,0,0-2.85-2.61c.09-.68.12-1.35.15-2a8.53,8.53,0,0,0,0-1.89l.43.25A30.2,30.2,0,0,1,122.93,37.51Zm-5-3.49a5.57,5.57,0,0,0-.11,2.27c0,.57,0,1.14.11,1.72a5.88,5.88,0,0,0-4.68-.39,7.52,7.52,0,0,0-1-2.49c-.33-.72-.66-1.45-1-2.15A9.6,9.6,0,0,1,117.89,34Zm-7.21-.88c.24.66.52,1.3.8,1.94a8.88,8.88,0,0,0,1.37,2.69A9,9,0,0,0,109.76,40l-.12.15A6.94,6.94,0,0,0,108.32,38a11.12,11.12,0,0,0-1.66-1.83,9,9,0,0,1,1.14-1.27A8.12,8.12,0,0,1,110.68,33.14ZM102.27,43.4a5,5,0,0,1-2,3,4.63,4.63,0,0,0-1.21-1.07,3.23,3.23,0,0,0-.42-.2,16.29,16.29,0,0,0,0-3.82,9.24,9.24,0,0,1,1.93.77A6.82,6.82,0,0,1,102.27,43.4Zm-3-8a8.4,8.4,0,0,0-.94.21l-.61.17c-.18,0-.37.07-.56.11a4.1,4.1,0,0,0-.87.32,7.18,7.18,0,0,0-2.92-3.45.23.23,0,0,0,.17-.07,5.93,5.93,0,0,0,1.35-2.92A10.29,10.29,0,0,1,99.28,35.36Zm-9.62-7.57a12.7,12.7,0,0,1,4.55,1.53A6.13,6.13,0,0,0,93,32.43a.29.29,0,0,0,0,.1,8.62,8.62,0,0,0-2.68-1,16,16,0,0,0-9.11,1.18c-.2-.54-.45-1.06-.63-1.61s-.31-1.24-.48-1.86a19.69,19.69,0,0,1,6.66-1.56s0,0,0,.06a9.21,9.21,0,0,0,0,3.27.35.35,0,0,0,.67,0,9,9,0,0,0,0-3.27s0-.05,0-.08A16.61,16.61,0,0,1,89.66,27.79ZM71.78,34.26c.41.31.85.6,1.29.89a8.19,8.19,0,0,0,2.12,1.09.27.27,0,0,0,.26-.44,8.12,8.12,0,0,0-2-1.34c-.38-.21-.76-.42-1.15-.61.55-.41,1.09-.8,1.63-1.17a34.42,34.42,0,0,1,5.8-3.27A7.56,7.56,0,0,0,80.64,33a20.94,20.94,0,0,0-3.75,2.19,18.15,18.15,0,0,0-5.21,5.7l-.05-.07a5.37,5.37,0,0,0-5.1-1.12A22.49,22.49,0,0,1,71.78,34.26ZM96,63.28l-.16.21a.73.73,0,0,0-.62.24,10.92,10.92,0,0,0-3.18,8.19A10.31,10.31,0,0,0,93.13,76c1.14,2.29,3.05,4.1,2.47,6.9-1,4.85-5.88,7.12-9.8,9.26a20.19,20.19,0,0,0-8.1,7.2,28.72,28.72,0,0,0-3.47,10.75c-.7,4.5-2.85,7.89-7.82,7.78-8.89-.19-12.33-10.25-17-16.12-2.39-3-5.36-5.47-9.17-6.3-2.34-.51-4.79-.45-7.08-1.19A7,7,0,0,1,30.76,93c-4.13-5.74,3.6-10.37,5.61-15.39,2.33-5.81-.32-12.16,3.2-17.66a14.7,14.7,0,0,1,7.67-5.74,19,19,0,0,0,6.08-3.35c3.81-3.35,6.27-8.49,11.21-10.37A10,10,0,0,0,64,48.52c2.31,6.39,11.19,8,17,7.14a.68.68,0,0,0,.31-.13c0,.15,0,.3-.06.46a.22.22,0,0,0,0,.16,13.81,13.81,0,0,0-.05,2.57c.45,5.33,5.48,6.84,10.16,6A15.12,15.12,0,0,0,96.27,63C96.18,63.07,96.1,63.18,96,63.28Zm.47-1.76a.18.18,0,0,0-.21-.1,3.12,3.12,0,0,1-1.91,0,9.83,9.83,0,0,0,3.18-2.15A2.93,2.93,0,0,0,99,59.5,14.93,14.93,0,0,1,96.49,61.52ZM104,53.73a16.45,16.45,0,0,0,1-3.8c.38,0,.75.06,1.12.06.21,0,.44,0,.68,0a23,23,0,0,0,.7,4.38.23.23,0,0,0-.11,0,10.28,10.28,0,0,0-5.5,4.67q-.2-.39-.36-.78A19.07,19.07,0,0,0,104,53.73Zm-1.91,5.79a14.06,14.06,0,0,1,5.5-4.28l.11-.07q.15.54.33,1a14.26,14.26,0,0,0,1.2,2.72,9.72,9.72,0,0,0-2.46,4.52.32.32,0,0,0,0,.14,6.91,6.91,0,0,1-1.73-.77A8.75,8.75,0,0,1,102.07,59.52ZM110.65,64a14.45,14.45,0,0,1-3.59-.29.16.16,0,0,0,.08-.06c.91-1.31,1.7-2.66,2.67-3.92a2.19,2.19,0,0,0,1.6.7,4.47,4.47,0,0,0,2.37-.81,1.57,1.57,0,0,0,.38,1.16,15.89,15.89,0,0,1-2.56,2.56l-.85.68ZM93.74,111.82a17.67,17.67,0,0,0,.42-5.28c-.15-2.55-1-5.28-.09-7.79,2.12-5.75,10.22-6,13.48-10.86,1.77-2.67,1.27-5.74.39-8.64-.61-2-1.48-4-1.54-6.15-.08-2.77,1.51-4.81,3.49-6.55,2.64-2.33,6.2-4.29,7.18-7.94a5.81,5.81,0,0,0-1.16-5.51c1.49.07,3,0,4.51,0a30.69,30.69,0,0,1,.47,3.35,12,12,0,0,1-1.1,5.15,11.34,11.34,0,0,1-3.12,4.13,22.8,22.8,0,0,0-3.18,2.51c-1.79,2.12-1.39,5.26-1.19,7.82.26,3.44,1,7.16-.25,10.5C109.86,92.62,102,94,99.63,100c-1.74,4.38-.34,9.54-2.22,14a18.3,18.3,0,0,0-5.27,1.6A12.72,12.72,0,0,0,93.74,111.82Zm-21.82,13c3.51-.2,7,1.53,10.53.73s4.66-4.25,7.07-6.41a16.23,16.23,0,0,1,11.56-4.06c2.67.12,5.74.73,8.23-.57,3.08-1.61,2.29-4.77,3.22-7.55,1.44-4.29,7-4.68,10.71-4.79s7.55-.2,10.32-2.84a6.46,6.46,0,0,0,2-6.81,16.84,16.84,0,0,0,2,1.25A12.33,12.33,0,0,1,133.93,104c-3.19,3.09-7,3.1-11.13,3.44-3,.24-5.74,1-7.6,3.45-2.38,3.17-3.14,6.67-7.41,7.83-5.61,1.53-12.2-.85-17.28,2.67-2.46,1.7-3.53,4.5-5.21,6.85-3.33,4.67-8.16,2.46-12.89,2.28-6.28-.24-13.15,4.64-14,11.1-.6-.9-1.21-1.8-1.86-2.67C57.88,131.49,64.25,125.23,71.92,124.8Zm-13,17.47a.33.33,0,0,0,.18-.2c1.34-4,3.52-7.36,7.47-9.25s7.87-.68,12.12-.38a8.08,8.08,0,0,0,7.5-3.35c2.22-3,3.44-6.45,7.25-7.72,5.69-1.91,12.58.78,17.82-2.73,2.87-1.92,3.42-5.45,5.76-7.8,2.92-2.93,7.89-1.86,11.61-2.58A13.29,13.29,0,0,0,139,94.46c.56.28,1.12.54,1.67.8a.76.76,0,0,0-.08.48,13.32,13.32,0,0,1-3.36,11c-3.16,3.54-6.89,4-11.35,4.44a10.42,10.42,0,0,0-7.56,4.08c-2.12,2.65-3.48,6.23-6.41,8.15-5.76,3.76-13.61-1.33-19.18,3.1-3.24,2.56-3.69,7.35-7.13,9.67s-7.51-1.26-11.25-1.24c-6,0-12.13,4.16-13.47,10.1-.31-.39-.62-.79-.9-1.19S59.25,142.78,58.9,142.27Zm87.49-38.67a13.16,13.16,0,0,1-2.5,7,13.55,13.55,0,0,1-11.58,5.43c-3.3-.14-7-1.12-9.88,1-3.12,2.33-3.58,6.78-6.45,9.43-3.67,3.39-8,3.61-12.7,3-3.6-.43-7.15-.5-9.83,2.32s-3.43,6.86-6.24,9.53c-4.07,3.85-7.28-.56-11.28-1.66-5.56-1.52-12,2.56-12.85,8.22a24.75,24.75,0,0,0-1.75-2.39c2.51-7.33,10.69-11.68,18-8.44,3.07,1.36,5.62,1.55,8.14-1,2.91-2.95,3.5-7.91,7.63-9.62,6.34-2.64,13.75,2.06,19.24-3.55,2.33-2.38,3.57-5.63,6-8,3.33-3.25,7.8-2,11.86-3.31a14.89,14.89,0,0,0,10-15.73l.17.09a12.18,12.18,0,0,0,3.33,1.56A26.22,26.22,0,0,1,146.39,103.6Z"/><path class="cls-1" d="M66,66.31c-5.38.44-11.38,3.31-14.13,8.12l-.1.15a.12.12,0,0,0-.2,0c-.13.3-.25.61-.38.92a10.65,10.65,0,0,0-1.1,3.07C48.72,83,48.57,87.49,52.73,90.8c4.33,3.43,10.35,3.06,14.9.28,5-3,9.71-9.18,9.64-15.25S71.88,65.82,66,66.31Zm7.53,16.87c-3.32,5.31-9.36,10.06-16,8.47-5.61-1.35-7.42-5.93-7.14-10.78a.22.22,0,0,0,.08-.13,19,19,0,0,1,1.68-5.14c1.48-2,2.85-3.88,5.11-5A25.27,25.27,0,0,1,66,67.78c3.56-.31,7.47,1,9.11,4.38C76.83,75.8,75.5,80,73.49,83.18Z"/><path class="cls-1" d="M59.32,78.51c.37-2.54-1.79-4-4.1-3-3,1.27-4.15,5.11-3.43,8.07a.31.31,0,0,0,.05.1c.17,1.47.9,3,2,3.5a1.82,1.82,0,0,0,2.39.44c1.16-.68.84-2.17.88-3.28C57.24,82.09,59,80.63,59.32,78.51ZM56.45,84.3c0,.4,0,.79,0,1.19q-1.43,2.52-2.7.67c-.12-.13-.21-.26-.32-.38a21.67,21.67,0,0,1-.91-3.41,7,7,0,0,1,1.81-5.1c.91-.89,3.89-2.38,4.25.63.13,1.14-.71,2.25-1.21,3.2A6.89,6.89,0,0,0,56.45,84.3Z"/><path class="cls-1" d="M60,85.86c-1.08-.16-2.58.71-2,1.92-.39,1.89,3.71,2.71,4.21.44C62.46,87,61.05,86,60,85.86Zm1.4,2.22c-.34,1.22-2.83.93-3-.15a.22.22,0,0,0,.05-.08A1.42,1.42,0,0,1,60,86.74C60.62,86.83,61.58,87.33,61.37,88.08Z"/><path class="cls-1" d="M60.25,73.34c0-1.15-1.57-.84-1.47.16a.14.14,0,0,0,.26.08.94.94,0,0,1,.34-.26c.13-.08.17-.15.22,0,.2.52-.56.53-.82.3a.16.16,0,0,0-.25.19A.91.91,0,0,0,60.25,73.34Z"/><path class="cls-1" d="M67.57,103.55a2.26,2.26,0,0,0-3.15.85,2,2,0,0,0,.8,2.69.13.13,0,0,0,0,.11,2.12,2.12,0,0,0,3.07-.59A2.34,2.34,0,0,0,67.57,103.55Zm.26,2.76a1.85,1.85,0,0,1-2.07.78.13.13,0,0,0,0-.13,2,2,0,0,1-.52-2.1,1.63,1.63,0,0,1,1.94-.72A1.57,1.57,0,0,1,67.83,106.31Z"/><path class="cls-1" d="M67.69,102c-.2,0-.29.25-.09.31A3.74,3.74,0,0,1,69.74,104c.09.13.31,0,.26-.11A2.7,2.7,0,0,0,67.69,102Z"/><path class="cls-1" d="M59.29,100.28c-.5-.1-1.46.18-1.37.85a.33.33,0,0,0,.41.32c.24-.07.39-.26.64-.3a.89.89,0,0,1,.79.19c.57.63-.76,1.3-1.27.82a.18.18,0,0,0-.25.25,1.29,1.29,0,0,0,2.18-1.07A1.38,1.38,0,0,0,59.29,100.28Z"/><path class="cls-1" d="M65.1,98.61c-.17,0-.24.22-.07.26.7.16,1.17-.43,1.24-1.07a.26.26,0,0,0-.11-.21,1,1,0,0,0-1.38.19.29.29,0,0,0,.25.43,5.19,5.19,0,0,0,.85-.14C65.92,98.42,65.42,98.68,65.1,98.61Z"/><path class="cls-1" d="M76.57,57.12a1.94,1.94,0,0,0-1.47,2.42c-.15,0-.32.13-.25.3a2.32,2.32,0,0,0,2.6,1.42,2,2,0,0,0,1.47-2.46A2,2,0,0,0,76.57,57.12Zm-1.14,2.79a.15.15,0,0,0,.11-.14,1.89,1.89,0,0,1,1.24-1.87,1.25,1.25,0,0,1,1.54,1.17C78.55,60.84,76.26,61.14,75.43,59.91Z"/><path class="cls-1" d="M73.87,60a7.09,7.09,0,0,1-.11-1.13,5.3,5.3,0,0,1,.37-1.08.17.17,0,0,0-.21-.21,1.63,1.63,0,0,0-.47,2.66A.28.28,0,0,0,73.87,60Z"/><path class="cls-1" d="M58.57,52.27c.13-.35.18-.7.59-.84A.69.69,0,0,1,60,52c.27,1-.92,1.36-1.64,1.08-.2-.07-.32.24-.14.34a1.54,1.54,0,0,0,2.24-1.91,1.33,1.33,0,0,0-1.64-.8c-.62.19-1.31,1.06-.85,1.69A.33.33,0,0,0,58.57,52.27Z"/><path class="cls-1" d="M56.24,54.23s-.08,0-.08,0a.53.53,0,0,1-.23.6c-.23.13-.38.1-.5-.12s-.09-.32.13-.46a.54.54,0,0,1,.35-.08c.25,0,.25-.33.05-.41-.7-.28-1.25.8-.7,1.26S56.59,54.74,56.24,54.23Z"/><path class="cls-1" d="M91.14,82.35c-.15.22-.51.47-.79.28s.06-.67.33-.62a.12.12,0,0,0,.09-.22c-.74-.56-1.53.51-1.07,1.19a1,1,0,0,0,1.69-.56A.14.14,0,0,0,91.14,82.35Z"/><path class="cls-1" d="M44.78,84.54c-.07,0-.13.09-.05.12a.48.48,0,0,1-.13.92,1.57,1.57,0,0,1-.43,0,6.9,6.9,0,0,1-.09-.78c0-.15-.24-.15-.23,0,0,.32,0,.64-.06,1a.21.21,0,0,0,.15.19,1,1,0,0,0,1.27-.53A.67.67,0,0,0,44.78,84.54Z"/><path class="cls-1" d="M56.41,99.68a1.42,1.42,0,0,0,0,2.17c.08.07.24,0,.16-.12a1.4,1.4,0,0,1,0-1.85A.14.14,0,0,0,56.41,99.68Z"/><path class="cls-1" d="M90.33,80.48a1.71,1.71,0,0,0,.45,0,.2.2,0,0,0,0-.38,1.36,1.36,0,0,0-.45,0A.22.22,0,0,0,90.33,80.48Z"/><path class="cls-1" d="M54.22,63.52a.19.19,0,0,0-.31-.13c-.18.18-.6.26-.75,0a.32.32,0,0,0-.55.32C53,64.41,54.15,64.4,54.22,63.52Z"/><path class="cls-1" d="M58.71,66.5c4.06-1.91,9-1.87,13.27-.8a.17.17,0,0,0,.09-.32c-8.95-3.74-19.18,1.85-23.43,10-.07.13.1.28.2.16C51.88,72.15,54.46,68.49,58.71,66.5Z"/><path class="cls-1" d="M76.49,83.68a25.84,25.84,0,0,1-5.39,6.7c-2.48,2.05-5.27,3.07-8.25,4.18-.13,0-.13.29,0,.27,5.84-.62,11.85-5.6,14-11C77,83.62,76.61,83.49,76.49,83.68Z"/><path class="cls-1" d="M45.87,127.09c2.45-4.67,1.26-10.44-2-14.41a12.12,12.12,0,0,0-14.65-3c-6.16,3-8.46,10.37-6.34,16.56a.37.37,0,0,0,.33.27c1.15,4.27,5.14,6.82,9.79,7.71C38,135.18,43.59,131.42,45.87,127.09Zm-8,5.17c-3.46,1.32-8.23.28-11.38-2.28a.19.19,0,0,0,0-.12,11.74,11.74,0,0,1-3-5.2c-.6-5.9,2-12.28,8-14.19,6.31-2,12.15,2,13.85,8.1C47,124.55,43.43,130.11,37.82,132.26Z"/><path class="cls-1" d="M34.44,121.37a2,2,0,0,0-.65.71l-.3-.09a2.22,2.22,0,0,1,.06-1.46.29.29,0,0,0-.49-.29,3,3,0,0,0-.54,1.84.9.9,0,0,0,.3.75,4.52,4.52,0,0,0,1.08.4.55.55,0,0,0,.61-.25,2.79,2.79,0,0,0,.43-1.33A.33.33,0,0,0,34.44,121.37Z"/><path class="cls-1" d="M34.49,124.3a2.11,2.11,0,0,1-2.68,0,3.09,3.09,0,0,1-.49-3.33c.09-.24-.29-.4-.41-.18-.72,1.4-.87,3.33.5,4.4a2.26,2.26,0,0,0,3.45-.56A.23.23,0,0,0,34.49,124.3Z"/><path class="cls-1" d="M33.82,116.54a3.88,3.88,0,0,1,3.6.87,4,4,0,0,1,.81,3.41c0,.27.36.34.49.13,1.74-2.94-2.24-6.52-5-4.71A.17.17,0,0,0,33.82,116.54Z"/><path class="cls-1" d="M26.31,121.39c.14-3.07,2.23-4.78,4.22-6.76,0,0,0-.08,0-.07-2.93.44-4.87,3.73-5.17,6.47a7.66,7.66,0,0,0,4.28,7.79c.14.07.32-.12.18-.24A9.13,9.13,0,0,1,26.31,121.39Z"/><path class="cls-1" d="M41,118.83c1.33,3.19-.84,7-4,8.06-.23.07-.21.46.06.44,4.1-.42,6.12-5.15,4.15-8.59C41.14,118.64,40.94,118.71,41,118.83Z"/></g></g></svg>