<svg xmlns="http://www.w3.org/2000/svg" viewBox="0 0 178.25 176.67"><defs><style>.cls-1{fill:#1a1a1a;}</style></defs><g id="Capa_2" data-name="Capa 2"><g id="OBJECTS"><path class="cls-1" d="M158.55,76.15c-3.41-14.88-12.34-28.06-23.06-38.71C125.3,27.3,110.78,21.25,96.75,18.89A66.57,66.57,0,0,0,86,17.94a.71.71,0,0,0-.43.14,39.68,39.68,0,0,0-15.24,2.11,70.45,70.45,0,0,0-25.29,12c-11.27,8.5-18.44,21.18-23,34.32A68.55,68.55,0,0,0,20,105.19c3.49,15,11.26,27.89,23.36,37.42,11.62,9.17,26.16,15.4,41.05,16a79.38,79.38,0,0,0,42.68-10.12C151.48,134.36,164.86,103.73,158.55,76.15ZM53,147.54c-12.69-7.41-23-18-28.55-31.7C19.31,103.1,17.36,88.5,20.53,75c3-12.76,8.9-25.75,17.82-35.46C47,30.19,59.07,24,71.44,21c2.74-.52,5.48-1,8.27-1.29,2.3-.22,4.61-.21,6.91-.27a75.15,75.15,0,0,1,40.55,12.86A70.2,70.2,0,0,1,141.46,46,81.67,81.67,0,0,1,153.33,64.9C165,91.2,156.67,124,134.19,142,123.32,150.7,109.71,155.5,96,156.88A69.94,69.94,0,0,1,53,147.54Z"/><path class="cls-1" d="M176.37,73.35C172.16,54.59,160.93,38,147.49,24.59c-12.79-12.78-31-20.4-48.64-23.39A83.83,83.83,0,0,0,85.25,0a.71.71,0,0,0-.47.17A51.72,51.72,0,0,0,65.4,2.81,88.69,88.69,0,0,0,33.69,18C19.57,28.65,10.58,44.62,4.85,61.13a86,86,0,0,0-2.53,48.34c4.35,18.67,14,34.8,29,46.73C46,167.79,64.25,175.73,83,176.57c18.31.83,37.41-3.34,53.35-12.47C167.18,146.45,184.15,108.06,176.37,73.35Zm-31,83.1c-13.77,10.79-30.91,16.67-48.22,18.31a86.21,86.21,0,0,1-27.84-1.5,92.43,92.43,0,0,1-26-10.53c-15.79-9.32-28.61-22.54-35.53-39.64-6.54-16.13-9-34.6-4.95-51.66,3.8-16,11.16-32.19,22.29-44.38C35.92,15.21,51.16,7.37,66.74,3.6c3.47-.69,6.93-1.34,10.47-1.69,3.27-.31,6.54-.27,9.8-.34a94.65,94.65,0,0,1,50.21,16.27c7.05,4.84,13,11.12,18.36,17.72a103.27,103.27,0,0,1,14.83,24C184.81,92.78,173.78,134.16,145.33,156.45Z"/><path class="cls-1" d="M48.84,14.87c.72-.35.09-1.42-.63-1.08-14.62,6.9-28.12,20-32.87,35.82,0,.15.19.26.26.11,3.7-7.44,7.75-14.34,13.47-20.45A66,66,0,0,1,48.84,14.87Z"/><path class="cls-1" d="M50.88,13.2a8.64,8.64,0,0,0,1.87-.45c.54-.19,1.16-.32,1.45-.86a.35.35,0,0,0-.21-.51,2.3,2.3,0,0,0-1.65.4,8.47,8.47,0,0,0-1.64,1A.26.26,0,0,0,50.88,13.2Z"/><path class="cls-1" d="M164.47,124.24c-3.7,7.44-7.74,14.34-13.47,20.45a66.1,66.1,0,0,1-19.76,14.41c-.73.34-.1,1.42.63,1.08,14.61-6.91,28.11-20.05,32.86-35.83C164.77,124.2,164.54,124.09,164.47,124.24Z"/><path class="cls-1" d="M129.19,160.76a8.56,8.56,0,0,0-1.86.45c-.55.19-1.17.33-1.46.86a.36.36,0,0,0,.21.52,2.36,2.36,0,0,0,1.65-.41,8.35,8.35,0,0,0,1.65-1A.26.26,0,0,0,129.19,160.76Z"/><path class="cls-1" d="M95.89,134.1c-2.31-2.67-4.66-5.31-7-8-.24-.27-.61.12-.39.39,2.15,2.62,4.28,5.25,6.45,7.85a83.63,83.63,0,0,0,6.63,7.67c.3.28.85-.09.59-.46A79.7,79.7,0,0,0,95.89,134.1Z"/><path class="cls-1" d="M80.62,72.7a.19.19,0,0,0-.38,0,2.22,2.22,0,0,0,2.21,2,2.24,2.24,0,0,0,.23-4.46,2.17,2.17,0,0,0-2.43,1.82.22.22,0,0,0,.4.11A2.06,2.06,0,0,1,82.53,71a1.47,1.47,0,0,1,1.36,1.58C83.84,74.69,81.08,74.45,80.62,72.7Z"/><path class="cls-1" d="M78.77,65.35a1,1,0,0,0-.83-1.55c-.24,0-.18.36,0,.42s.68.43.46.79-.83.18-1-.18a.18.18,0,0,0-.35.1A1,1,0,0,0,78.77,65.35Z"/><path class="cls-1" d="M55,82.27a2.8,2.8,0,0,0-2.47,3.28.16.16,0,0,0,0,.08.35.35,0,0,0-.15.34c.21,1.54,2.07,2.27,3.46,2A2.9,2.9,0,0,0,55,82.27Zm.48,4.82A2.7,2.7,0,0,1,53.1,85.7a.34.34,0,0,0-.25-.15s0,0,0,0A2.65,2.65,0,0,1,55.13,83,2.07,2.07,0,0,1,57.25,85,1.83,1.83,0,0,1,55.51,87.09Z"/><path class="cls-1" d="M60.75,87.78a.29.29,0,0,0,.12.47c.17.06.33,0,.47.16s.27.38.13.55-.79.05-.88-.24-.39-.17-.38.06a1,1,0,0,0,1.83.55C62.58,88.57,61.56,87.07,60.75,87.78Z"/><path class="cls-1" d="M68.15,94.45a1.81,1.81,0,0,0,1.69.67,1.61,1.61,0,0,0,1.1-2.26,1.56,1.56,0,0,0-2.38-.8,2,2,0,0,0-.77,1.29A1.21,1.21,0,0,0,68.15,94.45ZM69,92.8a.74.74,0,0,1,1.21.37.84.84,0,0,1-.58,1.22,1.26,1.26,0,0,1-.87-.22,2.4,2.4,0,0,1-.11-.71A1.07,1.07,0,0,1,69,92.8Z"/><path class="cls-1" d="M61.77,112.84a.25.25,0,0,0,.29,0,2.15,2.15,0,0,0,1.89.5,2.6,2.6,0,0,0,1.7-3.53,2.71,2.71,0,0,0-3.91-.93C60.56,109.77,60.32,112.05,61.77,112.84Zm.32-3.09a1.85,1.85,0,0,1,2.69.09,1.75,1.75,0,1,1-3,1.65A1.9,1.9,0,0,1,62.09,109.75Z"/><path class="cls-1" d="M70.09,110.82c-.42-.18-1.19-.15-1.3.42a.3.3,0,0,0,.36.36c.23,0,.37-.18.62-.14a1,1,0,0,1,.63.45c.19.34,0,.47-.34.45a1.23,1.23,0,0,1-1-.64c-.12-.22-.43,0-.33.19a1.68,1.68,0,0,0,1.42.94c.6,0,1-.28.89-.91A1.48,1.48,0,0,0,70.09,110.82Z"/><path class="cls-1" d="M66.42,104.87c-.12.15,0,.42.17.41s.63-.11.93.16a.62.62,0,0,1,.16.85c-.39.45-1.14.15-1.38-.28a.22.22,0,0,0-.41.11c0,1.2,1.87,1.45,2.42.48a1.26,1.26,0,0,0-.32-1.55C67.62,104.69,66.82,104.39,66.42,104.87Z"/><path class="cls-1" d="M96.29,108.05A1.32,1.32,0,0,0,95,106.72,1.41,1.41,0,0,0,93.69,108a.32.32,0,0,0-.09.15c-.17.76.76,1.31,1.41,1.3A1.31,1.31,0,0,0,96.29,108.05Zm-1.33.72c-.46,0-.59-.37-.83-.69l0,0c.16-.9,1.61-1,1.57.06A.65.65,0,0,1,95,108.77Z"/><path class="cls-1" d="M99.66,113.19a2.2,2.2,0,0,0-2,2,.12.12,0,0,0,.1.13.24.24,0,0,0-.22.28,2.18,2.18,0,0,0,2.38,1.8,2.14,2.14,0,0,0-.25-4.26Zm-1.53,2.38a.32.32,0,0,0-.3-.19.17.17,0,0,0,.13-.14c.22-1.7,3-1.85,3.06,0S98.7,117.08,98.13,115.57Z"/><path class="cls-1" d="M98.64,104.11a.19.19,0,0,0-.29.23.93.93,0,0,0,1.69-.6c-.14-.86-1.67-1.31-2-.34a.18.18,0,0,0,.26.2c.31-.16.8-.28,1.05.07S98.93,104.38,98.64,104.11Z"/><path class="cls-1" d="M82.36,107.53c-.14-.19-.51-.08-.42.18a.86.86,0,0,0,.76.66.9.9,0,0,0,.92-.48,1,1,0,0,0-.09-1c-.29-.4-1-.25-1.39-.16-.21,0-.18.33,0,.39s.89,0,.92.31S82.54,107.79,82.36,107.53Z"/><path class="cls-1" d="M78.92,81.08c.74-1.14-1.2-2.69-2-1.52-.1.15.06.39.24.32a.79.79,0,0,1,.84.05c.25.17.54.51.31.82-.39.53-1.34,0-1.28-.6,0-.22-.35-.27-.4-.05A1.28,1.28,0,0,0,78.92,81.08Z"/><path class="cls-1" d="M91.59,67.74c.25-.21.71-.48,1-.09a.47.47,0,0,1,0,.51A.31.31,0,0,1,92,68c0-.23-.3-.25-.38,0a.79.79,0,0,0,.67,1c.57.08,1-.5,1-1a1,1,0,0,0-.9-1.1,1,1,0,0,0-1.11.77C91.23,67.79,91.47,67.84,91.59,67.74Z"/><path class="cls-1" d="M81.93,91.38c-.25,2.56,3.34,2.32,5.35,2a6.48,6.48,0,0,0-.16,1.73.46.46,0,0,0,.34.45c1.54.34,3-.39,4.37-1.18.28,2.59,2.69,1.44,4.4,0,1.33,1.71,3.76,1.47,5.34.07,2.64,1.46,6.31,1.79,8.89.17a.42.42,0,0,0-.21-.78c-1.42,0-2.83.21-4.24.18a19.39,19.39,0,0,1-3.63-.53A9.84,9.84,0,0,0,104,89.76a2.19,2.19,0,0,0,.75.7,1.65,1.65,0,0,0,2.19-.31c1.48,1.73,4,3.65,5.85,1.41.92-1.13.09-1.23,1.53-1.79,1.22-.48,3.14-1,3.76-2.34a2.73,2.73,0,0,0-.59-2.9c-.17-.22-1.13-.91-1.2-1.15-.13-.54.89-1.81,1-2.41.44-2.66-2.14-2.46-3.85-1.64-.55-2-2.43-1.65-4.48-.58a4,4,0,0,0,.25-2.1A2.91,2.91,0,0,0,106,74c0-1.59-2.22-2.15-3.29-1.18-.12-.32-.27-.67-.43-1a1.88,1.88,0,0,0,1.2-1.67.31.31,0,0,0-.46-.19c-.3.16-.5.45-.79.63a2.47,2.47,0,0,1-.49.19c-.63-1.08-1.46-2-2.47-1.71-1.34.34-1.44,2.19-1.18,4-1.75.08-3.3.32-5-.41a8.55,8.55,0,0,1-4-3.76.35.35,0,0,0-.63.26c1.16,3.77,6,7.07,9.9,5.15.14.62.28,1.19.42,1.67a4.67,4.67,0,0,0-1.16-.14.54.54,0,0,0-.51.39A4.87,4.87,0,0,0,97.81,80c-1.71-1-3.77-1.66-5.27-.39a1.82,1.82,0,0,0-.36,2.28,13.71,13.71,0,0,0-3.17.57c-.67.19-2.5.61-2.93,1.27s.15,1.76.91,2.33C84.87,87.08,82.15,89.05,81.93,91.38ZM112.54,80.1c0,.34.41.66.75.43.87-.82,1.86-.65,2.95.52a7.19,7.19,0,0,1-1.2,2.21.48.48,0,0,0,.17.64,2.41,2.41,0,0,1,.57,4.2,7.93,7.93,0,0,1-3.2,1.16.45.45,0,0,0-.31.54q-1.86,2.88-3.92.58a11.49,11.49,0,0,1-1.24-1.63c-.25-.37-1-.29-1,.26-1.33.17-2-.29-1.88-1.36l0-.32a11.87,11.87,0,0,0-.4-3.25,20.55,20.55,0,0,1,2.6.34,15.31,15.31,0,0,1,2.56.92,2,2,0,0,0,1.83,1.86.21.21,0,0,0,.15-.36,9.78,9.78,0,0,1-.93-.89,1.07,1.07,0,0,1-.15-.22l.4.18a7.41,7.41,0,0,0,4.36.82c.19,0,.14-.31,0-.32a13,13,0,0,1-5.13-1.79.24.24,0,0,0-.27-.13c-.5-.25-1-.49-1.52-.7a5.78,5.78,0,0,1,1.56-1c.53-.22,1.1-.31,1.64-.49.26-.08.3-.51,0-.56a4.19,4.19,0,0,0-3.75,1.59.47.47,0,0,0-.08.2,6.9,6.9,0,0,0-2.54-.4c.4-.35.8-.7,1.22-1a14.13,14.13,0,0,0,1.56-1.21c.38-.27.76-.54,1.16-.8C109.3,79.57,112.27,77.62,112.54,80.1ZM99.35,77.25c.34.14.69-.27.59-.59-.23-.71-.63-1.79-.87-2.85a.57.57,0,0,0-.1-.54,3.81,3.81,0,0,1,.11-2.18c1.18-2.45,2.84,2,3.17,2.84.14.36.72.45.81,0,.64-1,1.31-.85,2,.52-.17.3.11.76.47.62,1.76-.67,2.84,1.6,2.55,3A4.06,4.06,0,0,1,107,80c-.93.64-1.81,1.33-2.53,1.94l-.72.46a11.39,11.39,0,0,0-.19-2.1,3.65,3.65,0,0,0,.65-1.19.27.27,0,0,0-.45-.27,2.67,2.67,0,0,0-.4.59,9.07,9.07,0,0,0-1.91-3.56c-.17-.19-.44.05-.34.26a18.8,18.8,0,0,1,.84,1.91,1.76,1.76,0,0,0-.61-.15c-.37,0-.41.45-.17.63a2.5,2.5,0,0,0,1.07.38,12.05,12.05,0,0,1,.51,3.45,12.7,12.7,0,0,1-2.61-1.36,4.32,4.32,0,0,1-1.69-2C98.16,78.15,98.22,76.79,99.35,77.25ZM88,86.45c.32-.12.41-.66,0-.75-.64-.13-1.45-1-1-1.62a7.74,7.74,0,0,1,2.22-.79,11.27,11.27,0,0,1,4.12-.45.47.47,0,0,0,.23-.87,1.2,1.2,0,0,1-.68-.85c-.06-1.63,2.71-1.06,3.42-.86,1.22.35,2.19,1.23,3.42,1.54h0a9.47,9.47,0,0,0,2.92,1.12.37.37,0,0,0-.05.11,9.28,9.28,0,0,0-5.08,1.47,16.22,16.22,0,0,0-4.28-.44c-.26,0-.33.41-.06.46a21.79,21.79,0,0,0,3.44.52c-.19.12-.38.24-.56.37L93.75,87a13.63,13.63,0,0,0-4.3-.21.2.2,0,0,0,0,.4,14.72,14.72,0,0,0,3.18.58c-1.43.92-2.88,1.81-4.44,2.63a.25.25,0,0,0,.12.45c2.38,0,4.31-1.34,6.17-2.67.41-.3.82-.58,1.21-.85-.11.52-.21,1-.3,1.55a4.6,4.6,0,0,0-.08,2.05.24.24,0,0,0,.44,0,4.29,4.29,0,0,0,.38-1.89c.06-.7.08-1.4.1-2.11a15.66,15.66,0,0,1,6.59-2.67A14.32,14.32,0,0,1,102.7,90c-.5,2-3.77,7.31-5.88,3.28a.57.57,0,0,0-.87-.11c-.91.86-3.22,2.83-3.14.34a.5.5,0,0,0-.75-.43c-1.25.79-4.71,3-3.73-.15a.45.45,0,0,0-.55-.55c-.85.18-2.37.66-3.21.36-.68.14-1-.25-1-1.18a1.37,1.37,0,0,1,.34-2.3A10.05,10.05,0,0,1,88,86.45Z"/><path class="cls-1" d="M93.32,99.71c-3.08.79-4.47,4.6-5.38,7.34s-1.91,6.61.13,9.21c.37.46,1.15,0,1-.57a12.8,12.8,0,0,1,.18-7.43c.6-2.21,1.91-6.7,4.36-7.6A.49.49,0,0,0,93.32,99.71Z"/><path class="cls-1" d="M67,101.61a24.32,24.32,0,0,1,7.17-1.82,21.7,21.7,0,0,1,7,1.28c.73.21,1-.76.49-1.17-4-2.88-11.37-2-15,1.11A.36.36,0,0,0,67,101.61Z"/><path class="cls-1" d="M71.12,68.12c-4.54,3.8-4.05,12.73-.28,16.88.52.57,1.24-.15,1-.75-1.91-4.51-4.25-11.36,0-15.4C72.35,68.38,71.62,67.69,71.12,68.12Z"/><path class="cls-1" d="M100.44,60.42a1.37,1.37,0,0,0,1.27-1.54,1.25,1.25,0,0,0-1.51-1.18,1.34,1.34,0,0,0-1.06,1.15l0,.06A1.36,1.36,0,0,0,100.44,60.42Zm-.23-1.94a.53.53,0,0,1,.79.5c0,.93-1,.85-1.42.32h0A1.46,1.46,0,0,1,100.21,58.48Z"/><path class="cls-1" d="M104.14,58.76c1,.15,2.17-.53,3.22-.56,2,0,2.46,1.31,3.72,2.43a2.8,2.8,0,0,0,3.12.73c2.64-1.47.39-5.67-1.26-6.94a7,7,0,0,0-9.27,1,.35.35,0,0,0-.09.23,2.29,2.29,0,0,0-.52,1C102.68,57.6,102.79,58.55,104.14,58.76Zm7.63-3.93a5.16,5.16,0,0,1,2.55,3.34q.81,2.56-2.21,2.2a8.35,8.35,0,0,1-1.31-1.28,4.4,4.4,0,0,0-3.06-1.69,19.55,19.55,0,0,0-2.23.43c-.71.45-1.32.26-1.83-.55a5.49,5.49,0,0,1,.37-1,3.14,3.14,0,0,1,.33-.48C106.69,54.52,109.18,53.39,111.77,54.83Z"/><path class="cls-1" d="M112.71,65.13a.17.17,0,0,0-.12.1c-.41,1-.86,2.73-.17,3.73s1.39.29,1.69-.47a5.61,5.61,0,0,0,.33-1.94,3.18,3.18,0,0,0-.16-1.68C113.85,64.18,113.07,64.6,112.71,65.13Zm1,.87a6.72,6.72,0,0,1-.12,1.79c-.09.37-.17,1.12-.76.49-.19-.19-.13-.73-.14-1a7.16,7.16,0,0,1,.14-1.6s0,0,.06,0,.34-.3.5-.31C113.82,65.32,113.71,65.73,113.71,66Z"/><path class="cls-1" d="M115.9,91.63a21.54,21.54,0,0,1-1.52,2.07,11,11,0,0,1-2.54,1.65c-.7.35-2.76.84-2.73,2,.06,2,4.29.36,5.06,0,2-.83,5.67-2.8,4.87-5.49a.38.38,0,0,0-.16-.21A1.9,1.9,0,0,0,115.9,91.63Zm2.39.41v0c.82,2.34-3.29,4.26-4.85,4.85a6.43,6.43,0,0,1-2.31.63c-3-.31-.19-1.05.45-1.31a12.63,12.63,0,0,0,3-1.56C115.43,94,117,91.34,118.29,92Z"/><path class="cls-1" d="M118.87,89.55a1.15,1.15,0,0,0,.26.41.13.13,0,0,0,.06,0,1.11,1.11,0,0,0,1.19.23,1.79,1.79,0,0,0,.92-1.87,1,1,0,0,0-1.59-.73,1.46,1.46,0,0,0-.74.87,1.62,1.62,0,0,0-.11.72.72.72,0,0,0,0,.21A.11.11,0,0,0,118.87,89.55Zm.86-.85c.15-.38.66-.65.92-.23.48.78-.59,1.72-1.23,1.34a4,4,0,0,0,.17-.49A4.61,4.61,0,0,1,119.73,88.7Z"/><path class="cls-1" d="M82.45,113.86c-1.83-.79-6.86-1.62-7.75,1,0,0,0,0,0,0-.75,1.07.43,2,1.94,2a14,14,0,0,1,7.07,2c.69.37,1.45.61,2-.18C86.86,116.86,83.83,114.46,82.45,113.86Zm1.14,4a11.31,11.31,0,0,1-1.65-.86,11,11,0,0,0-2-.62,10.46,10.46,0,0,0-1.49-.18,8.3,8.3,0,0,0-1.41,0c-1,.33-1.52-.13-1.59-1.37a9,9,0,0,1,4.69-.61,7.56,7.56,0,0,1,3,.91C83.92,115.67,85.76,118.26,83.59,117.89Z"/><path class="cls-1" d="M88.54,118.22a1.91,1.91,0,0,0-1.37,0,1.49,1.49,0,0,0-.54,1.26.09.09,0,0,0,.16,0c.23-.34.6-.77,1-.75a2.85,2.85,0,0,1,1.75.85c.2.2.67.67.4,1-.13.18-.61.12-.81.11-.73,0-2-.16-2.11-1.09,0-.15-.27-.11-.26,0,.11,1.21,1,1.6,2.11,1.68.73,0,2,0,1.83-1.11A3.14,3.14,0,0,0,88.54,118.22Z"/><path class="cls-1" d="M69.67,60.46c.81-1.28,5.8-3.91,2.8-5.46a4.44,4.44,0,0,0-6.1,2.55h0c-.66,1.32-1.87,4.26-.77,5.63C67.32,65.33,69.08,61.4,69.67,60.46Zm-3.1-2.78h0A9.1,9.1,0,0,1,69,55.92c.79-.37,2.67-.87,3.42-.12,1.06,1.08-2.4,2.93-3.09,3.91a16,16,0,0,0-1,1.88c-.64,1.26-2.34,2.14-2.64.24A8.15,8.15,0,0,1,66.57,57.68Z"/><path class="cls-1" d="M65.5,69.4a2.08,2.08,0,0,0,1-1.8c0-.53-.4-1.19-1-1.11a.13.13,0,0,0-.19,0,10.77,10.77,0,0,0-.85,1.37,1.85,1.85,0,0,0-.3,1.15C64.29,69.7,65,69.67,65.5,69.4ZM65,68.23c.19-.46.31-1,.5-1.41a1,1,0,0,1,.38,1,1.91,1.91,0,0,1-.64,1c-.18.13-.38.26-.44,0C64.75,68.63,64.93,68.33,65,68.23Z"/><path class="cls-1" d="M79.52,88.37a.78.78,0,0,0,0-1.55A.78.78,0,0,0,79.52,88.37Z"/><path class="cls-1" d="M62.15,80.16a.58.58,0,0,0,0-1.16A.58.58,0,0,0,62.15,80.16Z"/><path class="cls-1" d="M75.7,73.64a.36.36,0,0,0,0-.72A.36.36,0,0,0,75.7,73.64Z"/><path class="cls-1" d="M91,76.3a.61.61,0,0,0,0,1.22A.61.61,0,0,0,91,76.3Z"/><path class="cls-1" d="M97.66,64.93a.39.39,0,0,0-.47.61C97.58,65.94,98.15,65.2,97.66,64.93Z"/><path class="cls-1" d="M108.15,70.67a.64.64,0,0,0,0-1.27A.64.64,0,0,0,108.15,70.67Z"/><path class="cls-1" d="M105.25,98.13a.22.22,0,0,0-.31,0l-.09.1a.35.35,0,1,0,.49,0Z"/><path class="cls-1" d="M115,77.56a.27.27,0,0,0,0-.54A.27.27,0,0,0,115,77.56Z"/><path class="cls-1" d="M87,100.7a.47.47,0,0,0-.85-.36C85.85,100.91,86.83,101.35,87,100.7Z"/><path class="cls-1" d="M93.26,114a.73.73,0,0,0,0,1.45A.73.73,0,0,0,93.26,114Z"/><path class="cls-1" d="M96.11,122.73l-.15.09a.33.33,0,0,0,0,.55l.15.08C96.88,123.91,96.88,122.28,96.11,122.73Z"/><path class="cls-1" d="M75.32,106.07a.73.73,0,0,0,0-1.45A.73.73,0,0,0,75.32,106.07Z"/><path class="cls-1" d="M62.83,105.09a1.26,1.26,0,0,0,.28,0,.18.18,0,0,0,.17-.18,1.45,1.45,0,0,0,0-.28C63.05,104,62.15,104.91,62.83,105.09Z"/><path class="cls-1" d="M135,125.6a.45.45,0,0,0,.56-.07,2.8,2.8,0,0,0,.71-1.62.3.3,0,0,0,0-.45,5.47,5.47,0,0,0-5.88-1.2,2.7,2.7,0,0,0-.3-2.42s-.05,0-.08-.07a43.36,43.36,0,0,0,1.74-4.18c2.92-2,5.63-4.86,6.06-8.5S136,101.63,134,99.33a33.06,33.06,0,0,0-.85-4.87c1.73-.49,3.62-1.65,4.08-3.41a3,3,0,0,0-1.87-3.71c-.32-.08-.67.29-.46.6.58.85,0,2.2-.71,2.82a3.16,3.16,0,0,1-2,.73,29.39,29.39,0,0,0-1.84-4.09,11.13,11.13,0,0,1,.17-1.7,22.35,22.35,0,0,1,1.39-3.62,8.94,8.94,0,0,0,.89-4.89,6.88,6.88,0,0,0-1.9-3.64s0,0,0,0c.49-2-.6-4.23-2-5.62-1.06-1-3-2.25-4.58-1.88a15.1,15.1,0,0,0-1-1.53A10.47,10.47,0,0,1,130,67.19a6.39,6.39,0,0,1,2.12,3.5c.31,1.48-.28,2.78-.18,4.22a.1.1,0,0,0,.16.06c2.19-1.9.68-6.27-.88-8.11a10.5,10.5,0,0,0-1.71-1.6c-.08-1.87-2-3.41-3.55-4.08s-4.69-1.34-6.35-.43a15.06,15.06,0,0,0-1.87-1.15,10.86,10.86,0,0,0-.17-1.88,7.73,7.73,0,0,0-1.47-3.37,8.87,8.87,0,0,0-1.7-5.45.43.43,0,0,0-.33-.17c-.09-.87-.2-1.73-.34-2.58a.37.37,0,0,0-.36-.27l-2,0a.4.4,0,0,0-.38.49,9.2,9.2,0,0,1,.27,4.71L111,51a4,4,0,0,0-2.63-3.13,3.7,3.7,0,0,0-2.66,0c-2,.78-2.89,2.53-5.38,2.35h0l-.63-.63A3,3,0,0,0,102.5,49c1.37-.9,2-2.26,3.8-2.63s3.26.46,4.63,1.56a.19.19,0,0,0,.3-.24,4.6,4.6,0,0,0-4.7-2.31,6.49,6.49,0,0,0-3.4,1.71.36.36,0,0,0-.23-.32c-2.74-1-1.29-3.5-.07-5.12a.41.41,0,0,0,0-.39c-1.32-2.06-3.2.73-3.71,1.92-.76,1.78-.66,4.47,1.28,5.38a3.94,3.94,0,0,1-.92.05c-1.82-.87-1.37-4-2-5.55a4.14,4.14,0,0,0-2-2.17C93.17,39.77,90,40.54,88.12,42c-3.32-.56-4.79-3.68-7.65-5.15a7.83,7.83,0,0,0-6.33-.5c-2.59-.81-5.31-.85-7.44.6a22.07,22.07,0,0,0-6.81.62c-3.83,1-5.51,4.16-7.29,7.27a3.36,3.36,0,0,1-3.73-.4A3.79,3.79,0,0,1,48,41.27c0-.35-.49-.48-.66-.2-1.8-.45-2.54,1.85-1.88,3.24A7.19,7.19,0,0,0,50.63,48l-.08.11a5.72,5.72,0,0,0-4.75,1.38.29.29,0,0,0-.21-.26,6.36,6.36,0,0,0-7.28,3.85,6.65,6.65,0,0,0,2.92,8,32.25,32.25,0,0,0-1.84,5.66c-.08.38-.16.77-.23,1.17-1.28,2.55-3.86,4.42-4.37,7.44-.27,1.6.6,3,1.54,4.25a.3.3,0,0,0-.14.15,5.58,5.58,0,0,1-2.83,3.13,7.64,7.64,0,0,1-3.66.38h0a.18.18,0,0,0-.36,0v0a.21.21,0,0,0-.07.34s0,0,.05,0c0,.73-.05,1.46-.1,2.19a.36.36,0,0,0,.27.34c3.14.61,7.16-.86,8.55-3.93a3.29,3.29,0,0,1,.26,1.67,15.62,15.62,0,0,0-.77,1.53,4.65,4.65,0,0,0-.35,3.17,5.54,5.54,0,0,0-1,3,8,8,0,0,0,.87,3.74.21.21,0,0,0-.24.25c.74,4.94-6,7.55-3.6,12.78a5.57,5.57,0,0,0,7.31,2.71,19.27,19.27,0,0,0,2.56,4.9,20.23,20.23,0,0,0,6.55,5.65,5.77,5.77,0,0,0,.6,3,2.68,2.68,0,0,0-2.16,1.12,2.53,2.53,0,0,0-.32,3,.23.23,0,0,0,0,.39,9.08,9.08,0,0,0,1.92.59.42.42,0,0,0,.51-.51,2.45,2.45,0,0,1,1.39-2.86,6.33,6.33,0,0,0,.56.47,3.48,3.48,0,0,0,2.49,2.94l.32.07c-1.39,1.84-.38,4.55,1.41,5.89,2.75,2.05,8.33,2.09,11.45,1.21a.23.23,0,0,0,.16-.25c.22.2.47.38.7.58-.52,2.35,2.61,4.13,4.5,3l1.25.65a4.37,4.37,0,0,1-3.93.25A4.5,4.5,0,0,1,68.16,137a.16.16,0,0,0-.32,0c-1.23,4.26,4.37,7.6,7.29,4.4a3.85,3.85,0,0,1,1.35,3,4.06,4.06,0,0,1-2.72,3.23.19.19,0,0,0-.1.22.53.53,0,0,0,0,.26c.23,1.66,2.39.78,3.13.08,1.2-1.13,2.8-3.43,2.42-5.24l1,.32A46.64,46.64,0,0,0,86.91,149a9.17,9.17,0,0,0,7.89,1.46,17.59,17.59,0,0,0,5.6-2.7h0c3.79-1.39,8.17-1.48,11.7-3.49a20,20,0,0,0,7.21-7.73c3.45-.63,7-2.32,8-5.42l.17-.12c1.71-1.32,3.27-3.81,2.07-5.91a.27.27,0,0,0-.15-.13l0,0C131.53,124.56,133.22,124.32,135,125.6Zm.77-1.7c-.14.3-.34.66-.61.68a8.36,8.36,0,0,1-1-.54,5.74,5.74,0,0,0-1.53-.39,4.58,4.58,0,0,0-2.72.39c.08-.24.18-.52.27-.81C132.25,122.3,133.74,123.16,135.75,123.9Zm-7.36.86a12.06,12.06,0,0,1-2,3.13,19.43,19.43,0,0,1-3.17,2.4,47.88,47.88,0,0,0,6.07-9A15.51,15.51,0,0,1,128.39,124.76Zm-50.61,15.9a.29.29,0,0,0,0-.21c-1.35-2.16-3-4-4.15-6.33a46.92,46.92,0,0,1-2.5-7.42,18.88,18.88,0,0,0,2.48.67c.58,3.4,2.59,6.58,4.38,9.44,1.08,1.74,2.26,3.93,4,5.25A37.86,37.86,0,0,1,77.78,140.66Zm-9.37-5.83A43.56,43.56,0,0,1,66,124.78l1.12-.1q.35.25.72.48a21.75,21.75,0,0,0,2.77,11.52A28.25,28.25,0,0,1,68.41,134.83Zm-11.08-3a6.45,6.45,0,0,0,5.56-1.11A27.2,27.2,0,0,0,66.2,135a15.44,15.44,0,0,1-3.84-.15C61.58,134.71,56.88,133.34,57.33,131.88ZM56,110.23a7,7,0,0,1,.36-1.86c.86-2.51,2.85-4.45,3.92-6.85l.15-.36c2.21-2.62,1.79-8.64-2.5-8.2-3.27-.38-7,2-9.3-1.38-2.87-4.25.17-8.82,3.44-11.69,3-2.68,6.67-4.76,9.07-8.12a11.47,11.47,0,0,0,2.08-5c.37-2.54-.15-5.14.65-7.62a9.36,9.36,0,0,1,12.08-5.81C80,54.84,81.09,59,84.28,61.53a5.39,5.39,0,0,0,1,.63s0,0,.06,0c2.48,1.27,4.9.11,7.1-1.68,3.73-3,7.38-6.66,12.2-7.84,4.32-1.06,10.19.25,11.23,5.24.76,3.67-.88,7.48-.88,11.16,0,4.18,2.63,6.6,4.48,10.11,2.49,4.75,3.49,9.65.23,14.29-2.59,3.68-6.5,4.86-10.27,6.86-2.86,1.52-5.16,3.69-5.39,7.1-.34,5,2.56,9.44-.57,14.11-3.48,5.2-10.15,5.15-14.67,1.47-1.8-1.46-3.41-3-5.59-3.94A16.87,16.87,0,0,0,77,117.94c-5.68-.1-12.35,2-17.46-1.39a7.31,7.31,0,0,1-3.54-6.1l0-.06A.11.11,0,0,0,56,110.23Zm-14.86-1.5c6.58-.23,13.53-4.12,18.43-8.35a23,23,0,0,1-1.44,2.72,75.67,75.67,0,0,1-7.5,4.86c-2.75,1.44-5.69,2.35-8.51,3.62A16.24,16.24,0,0,1,41.1,108.73Zm-.78-21.8a8.57,8.57,0,0,0,1.56-3.5,9.37,9.37,0,0,0,.7.71.35.35,0,0,0-.12.24C42.12,87,39,87.93,38.7,90.68c-.28,2.32.91,4.8,2,6.95-.22.58-.41,1.16-.57,1.75-.68-2.11-2.28-4.35-2.61-6.07C36.93,90.31,38.74,89,40.32,86.93Zm-.45-4a5.8,5.8,0,0,0,.52-1.73c.16.3.34.6.52.89a.45.45,0,0,0-.06.14,11.62,11.62,0,0,1-3,5.42C38,86,39.16,84.64,39.87,83Zm-1.18-9.22a19.39,19.39,0,0,0,.81,5.34c-1.08-1.53-2.09-3-1-5ZM83.63,42.59a25.8,25.8,0,0,1,7.12,9.47c.16.36.77.1.64-.27a20,20,0,0,0-5.83-8.61c.61.2,1.22.41,1.82.65A32.75,32.75,0,0,1,90.94,48c.85,1.21,1.45,2.59,2.24,3.82l-1,.25c-1.05.25-2.16.56-3.28.91a.25.25,0,0,0,0-.08,23.9,23.9,0,0,0-7-10.76C82.45,42.26,83,42.43,83.63,42.59Zm6.61.78A2.63,2.63,0,0,1,91.36,43a3.68,3.68,0,0,1,2.5.86,9.44,9.44,0,0,1,1.91,2.49A37.5,37.5,0,0,0,90.24,43.37Zm.17,1.79c.46.22.91.46,1.35.71.57.54,1.14,1.08,1.68,1.65,1,1.11,1.94,2.37,3,3.44.17.17.4,0,.31-.24A12.59,12.59,0,0,0,95,47.92c1.36.95,2.66,2,4,3a25.28,25.28,0,0,0-5.1.71C93.11,49.07,91,46.45,89,44.5,89.43,44.72,89.93,44.92,90.41,45.16ZM85,59.76a19.63,19.63,0,0,0,3.51-2.12,20,20,0,0,0,2.4-2.29A19.42,19.42,0,0,0,93,53.11a39.57,39.57,0,0,1,4.17-.74,89.38,89.38,0,0,1-10.44,8.39A4.27,4.27,0,0,1,85,59.76ZM77.45,41.38A42.06,42.06,0,0,1,81.57,47c1.14,1.89,3.61,5.33,3.08,7.67a15.9,15.9,0,0,0-1.83,1.11,43.39,43.39,0,0,0-8-14.62C75.7,41.22,76.58,41.28,77.45,41.38ZM87.73,55a25,25,0,0,1-2.28,1.45,15.6,15.6,0,0,1-2.63,1,.76.76,0,0,1-.11-.14C84.42,56.52,86.06,55.71,87.73,55Zm.62,0a.2.2,0,0,0-.06-.3,26.36,26.36,0,0,1,3.8-1.37l.16,0c-.36.5-.67,1-1.07,1.49A19.32,19.32,0,0,1,88.41,57a30.44,30.44,0,0,1-3.74,2.45c-.52-.53-1-1.08-1.45-1.62A9.06,9.06,0,0,0,88.35,55Zm10-2.75c.93-.07,1.88-.08,2.8-.22a22.4,22.4,0,0,0-2.84,1.56,52.65,52.65,0,0,0-5.62,4.35c-1.47,1.23-3,2.55-4.54,2.85A42.07,42.07,0,0,0,98.34,52.25ZM81,42a27.33,27.33,0,0,1,7.3,11.1.24.24,0,0,0,.06.09,28.32,28.32,0,0,0-2.86,1.13c.18-2-1.33-4.19-2.19-5.76a37.64,37.64,0,0,0-5-7l.85.12C79.74,41.69,80.37,41.83,81,42Zm-6.93-.78a47.17,47.17,0,0,1,8.11,15.14l-.11.08a17.25,17.25,0,0,0-3.42-3.56c-1.29-4.14-4-8.19-6.57-11.63C72.73,41.17,73.4,41.16,74.06,41.17Zm-2.57.06c1.24,2,2.52,4,3.66,6,.86,1.58,1.55,3.24,2.29,4.88a9.43,9.43,0,0,0-1.74-.7,13.88,13.88,0,0,0-1.53-.32,43.71,43.71,0,0,0-5.45-9.59C69.64,41.37,70.56,41.28,71.49,41.23ZM59.54,99.5a44.05,44.05,0,0,1-8.9,5.77c-3.14,1.47-6.37,2.07-9.65,3a18.19,18.19,0,0,1-.33-2.25,47.44,47.44,0,0,0,19.55-9.3,5.82,5.82,0,0,1-.32,2.7A.33.33,0,0,0,59.54,99.5ZM40.18,71.06a19.73,19.73,0,0,0,5,9.44l0,0A20.52,20.52,0,0,0,43.86,84C40.78,80.3,39.83,75.69,40.18,71.06Zm6.4,9.44,0,0a5.67,5.67,0,0,0,2,.38,14.14,14.14,0,0,0-.88,1.16h-.09A8.93,8.93,0,0,1,46,81.74H46c.1-.23.19-.45.3-.68S46.48,80.69,46.58,80.5Zm-.31,10.22c-.53,0-1,.26-1.57.29a2.81,2.81,0,0,1-.58,0c.17-1.07.29-2.13.41-3.19a2,2,0,0,0,1.25.27A8.2,8.2,0,0,0,46.27,90.72Zm-3.39.06a.17.17,0,0,0-.13.3l.1,0a14.63,14.63,0,0,1-.68,2.72c-.38-1.28-.9-2.27-.55-3.75a12.59,12.59,0,0,1,1.67-3.54c-.19,1.4-.24,2.82-.4,4.22Zm2.91-3.27a1.7,1.7,0,0,1-1.19-.21c.1-.82.23-1.64.4-2.45a2,2,0,0,0,.79.49l.34.08A9.21,9.21,0,0,0,45.79,87.51ZM43.59,85c-.05.21-.09.42-.13.64s-.3.32-.44.49a2,2,0,0,0,.24-1.39Zm-3,5.7c-.19,1.32,0,3.28,1.28,3.95-.24.61-.49,1.22-.74,1.84-.94-2.73-2.63-5.2-.27-8,.37-.44.87-.87,1.32-1.32A8,8,0,0,0,40.61,90.65ZM41.43,99a.14.14,0,0,0,.09,0l-.1,0Zm16.43-4.52a3.94,3.94,0,0,1,1.07.35.8.8,0,0,0,.49.07A4,4,0,0,1,60,96a61.55,61.55,0,0,1-19.38,9.69c0-.16,0-.32,0-.48a17.62,17.62,0,0,1,.07-2.3,37.91,37.91,0,0,0,9-3.22A32.41,32.41,0,0,0,57.86,94.51Zm-8.18,4.33a72.39,72.39,0,0,1-9,3.58,17.7,17.7,0,0,1,.61-3c3.53-.55,7.7-1.68,10.32-4.25,1.7.06,3.46-.67,5.14-.74C54.4,95.9,52.19,97.57,49.68,98.84Zm-2.86-1.72A30,30,0,0,1,41.53,99a.18.18,0,0,0,.14-.17c0-.14,0-.27,0-.4.38-1.06.86-2.08,1.29-3.11A8.68,8.68,0,0,0,48.53,94a5.75,5.75,0,0,0,1.88,1A34,34,0,0,1,46.82,97.12Zm-1.38-2.51a11.27,11.27,0,0,1-2.31.2,14.77,14.77,0,0,0,.63-2c.11-.45.19-.88.27-1.32A2.55,2.55,0,0,0,46.38,91a8.73,8.73,0,0,0,.44.93,6.88,6.88,0,0,0,1.24,1.64A12.1,12.1,0,0,1,45.44,94.61ZM46.28,85H46a1.7,1.7,0,0,1-.89-.46,15,15,0,0,1,.65-2.18s0,0,0,0a5.1,5.1,0,0,0,1.47.51A11.42,11.42,0,0,0,46.28,85ZM49.4,80a5.69,5.69,0,0,1-.81.13,9.75,9.75,0,0,1-1.79-.06,21.22,21.22,0,0,1,1.29-2,6.16,6.16,0,0,0,3.07.3A22.67,22.67,0,0,0,49.4,80Zm2.76-2.43a.24.24,0,0,0-.22-.06c-.69.11-1.3.38-2,.43a5.41,5.41,0,0,1-1.66-.1A26.25,26.25,0,0,1,50,75.72a.18.18,0,0,0,.1,0,18.37,18.37,0,0,0,6.06-1.3C54.89,75.54,53.5,76.55,52.16,77.6ZM44,58.75a35.74,35.74,0,0,0,2.9,6.9A56.8,56.8,0,0,0,51,72.92c-.7.69-1.38,1.41-2,2.15A119.33,119.33,0,0,1,42.5,61.78C42.94,60.74,43.44,59.74,44,58.75ZM56.74,74a.13.13,0,0,0-.14,0c-2.08.46-4.2.88-6.27,1.43.66-.7,1.35-1.36,2.06-2a22,22,0,0,0,7.1-2.3A17.54,17.54,0,0,1,56.74,74Zm3.68-4.32-.13.21c-1.29.6-2.57,1.24-3.91,1.75-1.06.4-2.13.72-3.2,1.07,1.25-1.08,2.55-2.11,3.86-3.12l.21-.06a.51.51,0,0,0,.47-.16L59,68.92c.67-.24,1.35-.45,2-.72A7.51,7.51,0,0,1,60.42,69.68Zm.82-2.22a22.56,22.56,0,0,0-2.52.84c.92-.72,1.84-1.44,2.74-2.19A11.87,11.87,0,0,1,61.24,67.46ZM52.4,48.62c1.31,2.89,2.86,5.68,4.33,8.48,1.34,2.56,2.55,6.1,4.56,8.21-.43.23-.86.44-1.28.69-3.39-5.17-6.12-10.64-9.22-16C51.31,49.55,51.85,49.07,52.4,48.62ZM62,59.25a132.18,132.18,0,0,0-6.63-12.79c.47-.3.94-.62,1.43-.91L58,44.93c.74,1.88,1.65,3.68,2.51,5.5s1.76,4,2.81,5.89A11.16,11.16,0,0,0,62,59.25Zm1.67-3.57c-.68-1.6-1.52-3.14-2.27-4.7-1-2.08-2-4.23-3.1-6.24.63-.32,1.27-.62,1.93-.9,1.73,3.28,3.55,6.53,5.33,9.79-.19.16-.39.31-.57.48A11,11,0,0,0,63.69,55.68Zm2.39-2.49a48.11,48.11,0,0,0-5.27-9.59c.82-.33,1.65-.63,2.49-.89a.16.16,0,0,0,0,.1,58.08,58.08,0,0,0,4.48,9.35A11.22,11.22,0,0,0,66.08,53.19Zm2.23-1.28a56.39,56.39,0,0,0-4.68-9.24l-.06,0c.69-.21,1.39-.4,2.1-.56,1.94,2.94,3.52,6,5.26,9.07A11,11,0,0,0,68.31,51.91Zm3.26-.86A55.54,55.54,0,0,0,66,42c.72-.16,1.45-.3,2.19-.41,1.64,3.18,3.48,6.28,5.19,9.44A10.33,10.33,0,0,0,71.57,51.05Zm-7-10.26A33.31,33.31,0,0,0,58,43.25,8,8,0,0,1,62,40c1.62-.51,3.24-.06,4.85.26C66.07,40.44,65.32,40.6,64.58,40.79Zm-9.53,5.89c1.81,4.7,4.47,9.19,6.74,13.69a33,33,0,0,0-.23,4c-.89-2.62-2.86-5.27-4.12-7.64C56,53.88,54.53,51,52.77,48.34,53.51,47.75,54.27,47.2,55.05,46.68Zm-4.72,3.77c2.29,5.6,5.66,10.95,8.92,16-.71.43-1.42.89-2.12,1.37-3.16-5.14-5.52-10.56-8.19-16C49.39,51.4,49.85,50.91,50.33,50.45Zm-1.77,1.83c1.62,5.68,4.65,11.12,7.81,16.1-.69.49-1.36,1-2,1.54a103.41,103.41,0,0,1-8-15C47.08,54,47.8,53.13,48.56,52.28Zm-2.4,3A53.51,53.51,0,0,0,53.8,70.36c-.78.66-1.53,1.35-2.27,2-1.28-2.24-2.64-4.42-3.81-6.73s-2.13-5.05-3.48-7.39c.45-.79.92-1.56,1.43-2.3a.29.29,0,0,0,.23-.34C46,55.52,46.07,55.39,46.16,55.27ZM43.51,56.6a5,5,0,0,1,.77-4.35,4.2,4.2,0,0,0,.33,2.67C44.23,55.47,43.86,56,43.51,56.6Zm1.15-5.54a4.84,4.84,0,0,0-1.76,6.4s0,0,.06.07c-.18.3-.34.61-.5.92a3.48,3.48,0,0,1-1.72-4.85c.94-1.7,2.6-2,4.09-2.92A2.59,2.59,0,0,0,44.66,51.06ZM42.3,62.26a66.56,66.56,0,0,0,6.15,13.47c-.44.54-.87,1.09-1.27,1.64a46.61,46.61,0,0,1-5.89-12.2C41.59,64.18,41.92,63.2,42.3,62.26ZM46.77,78c-.42.62-.81,1.25-1.18,1.91-2.75-2.91-4.13-6.26-5.28-10a29.21,29.21,0,0,1,.78-3.94A34.75,34.75,0,0,0,46.77,78Zm-7.05,23.15a19.66,19.66,0,0,0,.21,7.94,4,4,0,0,1-3.58-1.12c-1.53-1.88.37-4.7,1.16-6.48a7.63,7.63,0,0,0,.84-3.68A12.46,12.46,0,0,1,39.72,101.11Zm65-50.26c1.24-.65,2.89-1.43,3.62-.31A13.72,13.72,0,0,0,104.74,50.85Zm12.92,10.62a14.42,14.42,0,0,1,2.3,1.7s-.09,0-.12,0a28.13,28.13,0,0,0-2.7,2.76l-.2.22C117.17,64.61,117.5,63,117.66,61.47Zm5.57,6a42.54,42.54,0,0,0-5.9,4.74,7.6,7.6,0,0,1-.55-2.07c.73-.66,1.47-1.32,2.24-1.94.94-.76,2.1-1.33,3-2.17.21-.19,0-.6-.29-.5a11.09,11.09,0,0,0-3,2.07,17.62,17.62,0,0,0-2,1.9,15.91,15.91,0,0,1,.06-2.07c.35-.38.68-.78,1-1.15a25.11,25.11,0,0,0,2.39-2.84s0-.06,0-.09A14.49,14.49,0,0,1,123.23,67.51ZM133.35,110c.15-.7.28-1.4.39-2.11,0-.34.09-.67.13-1a.19.19,0,0,0,0-.08c.05-.42.09-.85.13-1.27A7.54,7.54,0,0,1,133.35,110Zm-7.82,14.21c-1.91-6.32-6.68-12.16-11.46-16.53l.82-.92c5.49,4.11,8.7,9.92,11.51,16Q126,123.48,125.53,124.18Zm-18.41-10.29c2.44,3.39,4.92,6.73,7.39,10.09a29.8,29.8,0,0,1,4.46,8.34c-.4.39-.8.77-1.21,1.14a55.2,55.2,0,0,0-11.38-17.32,13.17,13.17,0,0,0-.13-1.77l.84-.55S107.1,113.87,107.12,113.89Zm-1.24,7c1.83,2.43,3.71,4.79,5.3,7.39,1.48,2.4,2.54,5,3.9,7.46l-1.16.87c-.64-2.6-2.76-5.23-4.28-7.29a47.75,47.75,0,0,0-5.64-6.41,10.57,10.57,0,0,0,2.34-5.72c1.74,2.37,3.55,4.7,5.19,7.15,2.08,3.1,3.75,6.44,5.79,9.55-.52.45-1,.9-1.58,1.33-1.56-5.35-5.52-10.9-9.41-14.68C106.11,120.3,105.68,120.59,105.88,120.86Zm3.22,18.67c-1.11-5.15-5.15-10.21-8.78-13.75a11.16,11.16,0,0,0,1.69-1,39.1,39.1,0,0,1,6.95,9.39.24.24,0,0,0,.43-.19,19.5,19.5,0,0,0-7-9.49,10.43,10.43,0,0,0,1.19-1.11,48.06,48.06,0,0,1,5.84,7c1.41,2.07,2.37,4.62,3.87,6.61A39.19,39.19,0,0,1,109.1,139.53Zm-3.72-30.27a6.58,6.58,0,0,1,.71,1.09c.39.76.56,1.58.88,2.36a.21.21,0,0,0,.06.1l-.91.78C105.87,112.15,105.51,110.72,105.38,109.26Zm2.27,3a7.86,7.86,0,0,0-2.31-3.77,7.42,7.42,0,0,1,.27-2.17,19.26,19.26,0,0,1,2.1,2,23.34,23.34,0,0,0,1.72,2.24C108.85,111.16,108.26,111.71,107.65,112.26Zm2.34-2.21a7.5,7.5,0,0,0-1.57-2.18,13.52,13.52,0,0,0-2.55-2.23,6.6,6.6,0,0,1,1.5-2.18,8.53,8.53,0,0,1,2.83,2.05,20.48,20.48,0,0,1,1.71,2.57C111.29,108.75,110.64,109.4,110,110.05Zm2.46-2.58a7.78,7.78,0,0,0-1.84-2.6,8.1,8.1,0,0,0-2.83-1.79,11.2,11.2,0,0,1,2-1.38l.45-.24a.19.19,0,0,0,.11.16,10.75,10.75,0,0,1,2.87,1.82c.48.43.89,1,1.4,1.48C113.93,105.79,113.2,106.64,112.45,107.47Zm18-16c.25.63.47,1.25.67,1.89a8.65,8.65,0,0,0-6.88-2.81c.17-.47.33-.93.48-1.4l.3-1a8.25,8.25,0,0,1,3,.9A7.64,7.64,0,0,1,130.45,91.45Zm2,10.34c0,.91,0,1.82-.09,2.74A24,24,0,0,0,121.45,97c.33-.64.64-1.28.94-1.92A30.37,30.37,0,0,1,128,98,34.32,34.32,0,0,1,132.4,101.79Zm-9.3-16.92a9.06,9.06,0,0,0,1.34-.79,47.54,47.54,0,0,1-1.77,6.49.36.36,0,0,0,0,.11A12.53,12.53,0,0,0,123.1,84.87Zm.9,6.34c3,.19,5.06,1.67,7.2,3.69a.39.39,0,0,0,.37.1c.16.67.29,1.35.41,2a16.39,16.39,0,0,0-8.52-4.43C123.65,92.14,123.83,91.67,124,91.21Zm1.15-15.67A9.31,9.31,0,0,0,121,78.8c-.31-.67-.65-1.33-1-2h0a15.52,15.52,0,0,0,2-1.12A18.8,18.8,0,0,0,125,73.63C125.07,74.26,125.12,74.9,125.15,75.54Zm-3.79,3.8a24.38,24.38,0,0,0,2.11-1.84l1.7-1.4c0,.78,0,1.57,0,2.36a10.37,10.37,0,0,0-1.9,1.22,7.38,7.38,0,0,0-1.32,1.23c-.2-.52-.41-1-.65-1.55C121.31,79.35,121.33,79.36,121.36,79.34Zm2.66,1a7.38,7.38,0,0,1,1-.58c-.07.76-.16,1.52-.27,2.27,0,0,0,.06,0,.08,0,.22-.07.44-.1.66a6.24,6.24,0,0,0-.83.54,8.61,8.61,0,0,0-.92.78c-.05-.25-.09-.5-.16-.74-.15-.54-.32-1.06-.5-1.59C122.85,81.32,123.41,80.81,124,80.37Zm-1.56,10.76a47.21,47.21,0,0,1-4.07,8.43,2.52,2.52,0,0,0-.75-1.29,2.79,2.79,0,0,0-.57-.4,13.7,13.7,0,0,0,5.39-6.74Zm-6.06,7.16a3.18,3.18,0,0,1,.7.52,7.82,7.82,0,0,1,.83,1.31l.08.06c-.36.57-.73,1.13-1.11,1.69a6.38,6.38,0,0,0-3.2-2.12C114.63,99.29,115.53,98.82,116.4,98.29Zm-3.41,1.8a10,10,0,0,1,3.46,2.42c-.41.58-.84,1.15-1.27,1.71a6.78,6.78,0,0,0-1.49-1.36,11.65,11.65,0,0,0-3-1.63C111.46,100.83,112.23,100.46,113,100.09Zm13.79,22c-1.53-6.25-6.27-12.21-11.56-15.77.56-.66,1.1-1.33,1.62-2A36.14,36.14,0,0,1,128,119.85C127.6,120.61,127.2,121.37,126.78,122.11Zm-9.53-18.33c.37-.5.72-1,1.07-1.52a37.32,37.32,0,0,1,11,14.55c-.28.68-.58,1.35-.89,2A35.56,35.56,0,0,0,117.25,103.78Zm1.37-2c.45-.67.87-1.36,1.29-2.06,4.74,3.71,7.77,8.25,10.78,13.34-.23.72-.46,1.44-.73,2.16C127.75,109.69,123.47,105.24,118.62,101.81Zm12.44,10a31.73,31.73,0,0,0-10.88-12.52c.35-.58.68-1.18,1-1.78a37.74,37.74,0,0,1,11,8.36A39.35,39.35,0,0,1,131.06,111.8Zm1.29-11.49a19.17,19.17,0,0,0-9.78-5.64c.25-.54.49-1.08.71-1.62a20.14,20.14,0,0,1,8.85,5c0,.1,0,.2,0,.3a.38.38,0,0,0,0,.21l.06.18C132.27,99.28,132.32,99.79,132.35,100.31Zm-3-11.32a6.6,6.6,0,0,0-4.1-1.65c.3-1.1.57-2.24.79-3.4A27.4,27.4,0,0,1,129.35,89Zm-1.88-5.92c-.34-.43-.7-.85-1.08-1.27.14-1,.25-2,.3-3a.3.3,0,0,0,0-.39,31,31,0,0,0,0-3.34c2,1.89,2.9,3.7,1.41,6.69C127.87,82.19,127.64,82.63,127.47,83.07ZM126,70.62a4,4,0,0,1,.66.32,3.5,3.5,0,0,1,.54.47,7.59,7.59,0,0,0-1.06-.19C126.13,71,126.09,70.82,126,70.62ZM124.76,73c-1.07.64-2.07,1.36-3.16,2-.66.37-1.42.68-2.09,1.06l-.87-1.35a40.63,40.63,0,0,0,5.78-3.94,20.33,20.33,0,0,1,.47,2.22A.33.33,0,0,0,124.76,73Zm-.52-2.88a41.39,41.39,0,0,0-6.07,3.81c-.19-.31-.36-.63-.53-1,2.14-1.31,4-3.4,5.75-5.1A16.83,16.83,0,0,1,124.24,70.09ZM83,125.93a13.65,13.65,0,0,1-2.16-1.46,9.51,9.51,0,0,1-2-3c.93-.44,1.85-.91,2.74-1.42a8.87,8.87,0,0,0,4.39,5A22.44,22.44,0,0,1,83,125.93Zm8.65,17.58v0c0-.23-.35-.17-.41,0l0,0-.58,0c-5.18-4.32-8.78-10-12.26-15.72a24.88,24.88,0,0,0,2.59-.21,35.79,35.79,0,0,0,6.69,9.54,30.52,30.52,0,0,0,7.69,6.32C94.07,143.5,92.84,143.54,91.6,143.51ZM68.89,124.45c1.08-.17,2.16-.38,3.22-.65a5.68,5.68,0,0,0,.68,1.16,4.69,4.69,0,0,0,.95,1A30.38,30.38,0,0,1,68.89,124.45Zm-5.48-1a9.92,9.92,0,0,1,.49-2.31,4.67,4.67,0,0,1,1.27-1.58,26.69,26.69,0,0,0,2.69.07,4.23,4.23,0,0,0-1.25,3.61A28.5,28.5,0,0,1,63.41,123.5Zm-.1-4.15c.36.07.71.13,1.07.17a4,4,0,0,0-1.13,1.29,3.67,3.67,0,0,0-.49,2.7c-.43,0-.86,0-1.29-.05a.27.27,0,0,0,.08-.17,6.25,6.25,0,0,1,.59-2.52A5.05,5.05,0,0,1,63.31,119.35ZM73,122c.45-.44.87-.92,1.34-1.33a8.88,8.88,0,0,1,2.47-1.44,19.61,19.61,0,0,1,3,.24A52.76,52.76,0,0,1,73,122Zm-1,.26-.06,0c-1,.26-2,.48-3,.67a8.81,8.81,0,0,1,2.16-2.51,12.81,12.81,0,0,1,1.83-1.09l1.22-.08,1.13-.05A9.32,9.32,0,0,0,72,122.25Zm-3.64.59a.25.25,0,0,0,.08.21c-.4.06-.8.13-1.2.18a6.82,6.82,0,0,1,1.35-3.57c.94,0,1.88-.1,2.81-.17C69.81,120.18,68.38,121.21,68.31,122.84Zm6.42,3.07c-.29-.64-1-1-1.44-1.63a7.82,7.82,0,0,1-.43-.68c.76-.2,1.5-.43,2.24-.68a6.83,6.83,0,0,0,3.14,3.56h-.87a18.7,18.7,0,0,1-2.65-.28A.3.3,0,0,0,74.73,125.91Zm5.09.5a.38.38,0,0,0-.14-.29A22.84,22.84,0,0,1,77,124.49a6.19,6.19,0,0,1-1.33-1.78c.89-.32,1.77-.67,2.63-1.06A7.67,7.67,0,0,0,80.09,125a9.36,9.36,0,0,0,1.38,1.25C80.93,126.3,80.38,126.36,79.82,126.41Zm7-1.78c-.84-.74-1.88-1.22-2.72-2a8.16,8.16,0,0,1-1.83-2.53l.29.11c2.13.86,3.71,2.43,5.44,3.84C87.63,124.27,87.24,124.46,86.84,124.63ZM56.3,122.72l-.29-.08h0A19.36,19.36,0,0,0,57,120a11.74,11.74,0,0,1,1.53-2.64l.62.41q.53.32,1.05.57c-.39.81-.74,1.64-1.06,2.48a19,19,0,0,0-.8,2.31C57.69,123,57,122.89,56.3,122.72Zm-.9-9.18c-1.76,2.23-3.48,4.48-5.13,6.8a23.89,23.89,0,0,1-2.57-1.71A30.61,30.61,0,0,0,54.9,112,7.94,7.94,0,0,0,55.4,113.54Zm.17.36a9.34,9.34,0,0,0,2.79,3.29c-1.2,1.39-2.92,3.4-2.8,5.32h0a23.48,23.48,0,0,1-2.29-.74c1.3-1.42,2-3.52,2.9-5.17a.14.14,0,0,0-.24-.14c-1,1.57-2.56,3.24-3.17,5.09-.6-.25-1.18-.52-1.74-.82C52.6,118.49,54.1,116.22,55.57,113.9ZM58,124.45c-2.34,1.21-4.47.57-6-1.7A26.16,26.16,0,0,0,58,124.45Zm1.1-1.22c.23-.68.38-1.41.59-2.08.28-.9.58-1.78.92-2.65a13.44,13.44,0,0,0,2.08.71,4.17,4.17,0,0,0-1.81,4.17s0,0,0,.05C60.28,123.38,59.67,123.32,59.07,123.23Zm4.6,1.65a29.51,29.51,0,0,0,.61,5.17,30.25,30.25,0,0,1-2.82-5.21C62.19,124.88,62.93,124.89,63.67,124.88Zm2,7.09c-.56-2.36-1.18-4.69-1.62-7.09.54,0,1.07,0,1.61-.08a33,33,0,0,0,1.63,9C66.75,133.22,66.22,132.6,65.7,132Zm6.62,5.88a43.08,43.08,0,0,1-4.06-12.45,16.13,16.13,0,0,0,2.37,1.14,21.44,21.44,0,0,0,5.71,13.51A30.38,30.38,0,0,1,72.32,137.85Zm12.16,4.85a.36.36,0,0,0-.18-.29c-5.21-2.82-7.84-9.66-10.19-14.94a20.65,20.65,0,0,0,3.69.3c3.07,5.67,6.41,11.34,11.27,15.61A42,42,0,0,1,84.48,142.7Zm14.41,1.91h0a11.27,11.27,0,0,1-5.26,2.11,12.91,12.91,0,0,1-8.15-2.18A40.33,40.33,0,0,0,98.89,144.61Zm-2.48-1.3c-2.59-2.43-5.6-4.36-8.1-6.92a69.32,69.32,0,0,1-7-8.89c.7-.1,1.39-.24,2.07-.4a1.88,1.88,0,0,0,.33.05.26.26,0,0,0,.27-.19l.79-.23s0,0,0,.07A46.63,46.63,0,0,0,98.6,142.61c.5.35,1-.46.47-.82a52.11,52.11,0,0,1-14-15.17,23.51,23.51,0,0,0,4-1.69l.07,0a10.73,10.73,0,0,0,4.51,1.82,38.59,38.59,0,0,1,6.06,6.65c1.7,2.37,2.64,5.2,4.3,7.54a.28.28,0,0,0,.51-.22c-.5-2.84-2.69-5.76-4.4-8a34.28,34.28,0,0,0-5.8-5.87,11.13,11.13,0,0,0,5.48-.91.22.22,0,0,0,.06.17,36.23,36.23,0,0,1,5,6.59c1.34,2.3,2.08,4.91,3.32,7.23-.61.29-1.22.57-1.85.82a27.92,27.92,0,0,0-5.19-11.27c-.17-.22-.52.06-.38.29A45,45,0,0,1,106,140.94a33.77,33.77,0,0,1-3.55,1.22A37,37,0,0,1,96.41,143.31ZM113,139.17a10.3,10.3,0,0,1-1.84,2.16,11.17,11.17,0,0,1-5.28,2.54c1.17-.86,2.34-1.73,3.45-2.65A41.29,41.29,0,0,0,113,139.17Zm6.88-7.72c-.59-2.69-2.46-5.21-4-7.31-2.67-3.58-5.42-7.11-8.18-10.63a.1.1,0,0,0-.05,0,41.87,41.87,0,0,0,6.16-5.45,48.47,48.47,0,0,1,6.74,8.11,91.46,91.46,0,0,1,4.6,8.77l-.74,1.08c-1.77-6.06-6.48-11.82-10.94-16-.28-.26-.68.15-.41.4a43.58,43.58,0,0,1,6.82,8.26,76.19,76.19,0,0,1,4,8.06l-.44.61q-.58.77-1.2,1.5C120,122.38,115,116.69,110.27,112a.28.28,0,0,0-.4.4,72.53,72.53,0,0,1,7,8.85,71.46,71.46,0,0,1,4.47,8.59C120.83,130.39,120.33,130.92,119.83,131.45Zm17-25.15c0,3.39-2.26,5.75-4.57,7.93.23-.73.44-1.46.63-2.2,2.76-2.22,3.26-6.91,1.26-9.84,0-.2,0-.39,0-.59C135.39,102.88,136.79,104.05,136.81,106.3Zm-2.46-14.85c1.16-.85,1.2-1.89,1.25-3.09a2.39,2.39,0,0,1,.41,3.13,5.45,5.45,0,0,1-3.18,1.92c-.13-.44-.27-.89-.42-1.34A3,3,0,0,0,134.35,91.45Zm-4-9.25a23,23,0,0,0-1.25,3.15c-.23-.35-.46-.7-.7-1a7.13,7.13,0,0,1,.58-1.64,13.49,13.49,0,0,0,.92-1.72,5.65,5.65,0,0,0,.14-3.33,5.05,5.05,0,0,0-3.46-3.69c-.06-.59-.14-1.17-.24-1.75,1.69.81,3.34,1.52,4.39,3.24C132.17,77.75,131.36,79.94,130.37,82.2Zm-2.45-13.55a8.18,8.18,0,0,1,2.45,4.4,7.61,7.61,0,0,0-2.08-1.29,3.79,3.79,0,0,0-1.09-1.26,3.38,3.38,0,0,0-1.38-.72,19.14,19.14,0,0,0-.9-2.47A9.6,9.6,0,0,1,127.92,68.65ZM126,62.41a5.5,5.5,0,0,1,2.16,1.93,8.59,8.59,0,0,0-5.83-1.16,16.54,16.54,0,0,0-1.63-1.61A10.92,10.92,0,0,1,126,62.41Zm-10.75-9.06a9.66,9.66,0,0,0-1.1-.91,17.74,17.74,0,0,0,.05-2.31A12,12,0,0,1,115.23,53.35Zm-3.33-6.73h1.16a42.51,42.51,0,0,1,.41,5.39,10.14,10.14,0,0,0-1.73-.81A6.32,6.32,0,0,0,111.9,46.62Zm-4,2a3.49,3.49,0,0,1,2.3,2.19l-.11,0c-.41-.08-.82-.12-1.23-.16a2,2,0,0,0-1.74-1.35,3.89,3.89,0,0,0-2,.37l-.91.38C105.36,49.17,106.4,48.2,107.92,48.59Zm-6.87-.37c-2.11-1.31-2-3.58-.87-5.57.33-.6.47-.92,1.19-1,1-.18.41-.09.22.37s-.71,1-.92,1.65c-.5,1.43.14,4,2,3.81a7,7,0,0,1-1.54.9A.23.23,0,0,0,101.05,48.22Zm-7.72-7c3.27.19,3.39,2.69,3.93,5.16a6,6,0,0,0,.54,1.48c-.45-.37-.92-.72-1.4-1.06a6.27,6.27,0,0,0-1-2.47,5.32,5.32,0,0,0-2.07-1.78c-1.16-.54-3.14-.66-4.07.38l-.79-.33a.2.2,0,0,0,.15-.19C90.18,42,91.61,41.13,93.33,41.23ZM78.79,37.05a12.11,12.11,0,0,1,4.63,3.28c.34.32.68.64,1,.94l-.53-.16c-1-.28-2.08-.51-3.13-.71a16.56,16.56,0,0,0-5.64-3.67A9.61,9.61,0,0,1,78.79,37.05Zm-4.71.4A22,22,0,0,1,78.57,40C78,40,77.5,39.9,77,39.85a21.67,21.67,0,0,0-8.38-2.71A9.5,9.5,0,0,1,74.08,37.45ZM59.23,39.1c4.4-1.66,9-.67,13.41.61-.73,0-1.47.06-2.2.12-3.12-.62-6.54-2.08-9.63-.77a11.67,11.67,0,0,0-5.73,5.85c-.65.41-1.28.83-1.89,1.27C54.9,43.53,55.94,40.34,59.23,39.1Zm-11,6.7a6.23,6.23,0,0,1-1.5-1.4c-.61-.82-.89-2.39.35-2.75C46.19,44.47,49.35,47,51.94,46c-.26.42-.52.84-.79,1.24A20.34,20.34,0,0,1,48.22,45.8Zm-1.85,4.44a5.33,5.33,0,0,1,3.51-1.38,36.37,36.37,0,0,0-4.57,5A3.83,3.83,0,0,1,46.37,50.24ZM39.2,53.61c.86-2.65,3.63-3.78,6.2-3.74l-.12.12a4.13,4.13,0,0,0-.32.49.12.12,0,0,0-.09-.1c-2.33-.49-5,1.93-5.4,4.12-.35,1.82.72,4.29,2.6,4.71-.14.28-.29.54-.42.82A5.69,5.69,0,0,1,39.2,53.61Zm-.4,16.83c0,.62-.09,1.24-.11,1.86-.69,1.12-1.57,2.13-1.57,3.56a6.56,6.56,0,0,0,2.27,4.48,19.09,19.09,0,0,1-.39,2c-.61-2.1-3.17-4.34-3.17-6.16C35.83,73.91,37.41,72.21,38.8,70.44ZM33.9,84.83a7.84,7.84,0,0,1-2.52.67c-1.44.14-1.56-.55-1.63-1.59,2.58,1.49,6.37-1.17,7-3.8.28.38.55.76.79,1.14A8.7,8.7,0,0,1,33.9,84.83ZM34.24,108c-1.37-2.67.24-4.73,1.75-6.83,1-1.44,2-3.15,1.55-4.85l.1.18c.29,2.74-1.22,4.78-2.18,7.24-.49,1.27-1,2.88-.29,4.17a4.23,4.23,0,0,0,4.95,1.9c0,.12.07.23.1.35C37.87,110.72,35.52,110.45,34.24,108Zm8,3.9c5-.76,10.53-3.57,14.67-6.86a16.32,16.32,0,0,0-1.78,3.41s0,.11,0,.17a61.24,61.24,0,0,1-5.2,3.49C48,113.13,46,114,44.09,115A18.2,18.2,0,0,1,42.22,111.88Zm2.35,3.7a36.62,36.62,0,0,0,10.24-5.74,7.64,7.64,0,0,0,0,1.35c-1.11,1.11-2.16,2.27-3.3,3.34-1.38,1.3-2.88,2.43-4.3,3.67A19.65,19.65,0,0,1,44.57,115.58Zm6.86,6.91s0,0,0,.05c.41,3.61,5.53,4.94,7.8,2.2l.05-.09.59.07c.06.16.13.32.2.49-1.75,1.53-3.82,2.44-6.16,1.6a5.65,5.65,0,0,1-1.33-.71c0-.06,0-.12,0-.18a.16.16,0,0,0-.31-.07A6.78,6.78,0,0,1,50,121.79C50.44,122.05,50.93,122.27,51.43,122.49Zm-2.16,6.32c-.33-.05-.67-.08-1-.1a.25.25,0,0,0,0-.15,3.16,3.16,0,0,1,.46-2.24,2.93,2.93,0,0,1,1.8-1.13,6.35,6.35,0,0,0,.49.64A3.1,3.1,0,0,0,49.27,128.81ZM61,127.94a.3.3,0,0,0-.29-.5c-1.4.43-2.59,1.3-4.06,1.53a3.6,3.6,0,0,1-3.79-1.68,6.15,6.15,0,0,0,7.57-1.14,33,33,0,0,0,1.93,3.8,6.41,6.41,0,0,1-2.91,1.16,7.34,7.34,0,0,1-4.15-1l.09-.2A7.53,7.53,0,0,0,61,127.94ZM61,136c-2.89-.24-6.56-2.17-5.82-5.29a5,5,0,0,0,1.7,1c-.67,1.11,1.15,2.47,2.11,3a10.66,10.66,0,0,0,7.9.91c.29.29.58.57.88.84C65.54,135.82,63.2,136.2,61,136Zm9.75,3.39a2.73,2.73,0,0,1-1.42-1.67A27,27,0,0,0,72,139.58,2.15,2.15,0,0,1,70.7,139.41Zm6.65,6.39c-.13.21-2.46,3.26-2.84,2h0c2.56-.58,3.5-4,2-5.93.7.29,1.4.57,2.11.82C78.09,143.68,77.91,144.85,77.35,145.8Zm9.33,1c-1.08-.91-2.15-1.79-3.26-2.63.58.14,1.17.25,1.75.36a.18.18,0,0,0,0,.26c4.1,4.37,12.29,4.22,15.95-.59a37.39,37.39,0,0,0,3.62-1c-2.76,2.13-5.51,4.26-8.74,5.44C92.44,149.87,89.49,149.1,86.68,146.76Zm23.25-2.71c-2.22.88-4.76,1.1-7,1.92l2-1.42c4-.15,9.05-2.73,10.26-6.87.38-.27.76-.55,1.13-.84.46,0,.93,0,1.42-.06C115.46,139.65,113.6,142.6,109.93,144.05Zm12-9.45a12.61,12.61,0,0,1-2.16.53.41.41,0,0,0-.67,0l-.15.18-.85.11c.29-.24.56-.49.84-.74A36.82,36.82,0,0,0,126,132,11.42,11.42,0,0,1,121.92,134.6Zm6-5.28a9,9,0,0,1-3.69,2.44l-4,1.72c.63-.6,1.24-1.21,1.83-1.85,2.79.4,5.59-3,7-5.65A5.21,5.21,0,0,1,127.88,129.32Z"/></g></g></svg>